<svg width="992" height="487" xmlns="http://www.w3.org/2000/svg" xmlns:xlink="http://www.w3.org/1999/xlink" xml:space="preserve" overflow="hidden"><g transform="translate(-1366 -1000)"><path d="M264.506-238.161 727.038-238.161 727.038 725.219 264.506 725.219Z" stroke="#BFB33C" stroke-width="5.86747" stroke-miterlimit="10" fill="#EAE16D" transform="matrix(-1.83771e-16 1 -1.0004 -1.83697e-16 2105.59 747.777)"/><path d="M53.394 45.4729 938.208 45.4729 938.208 441.527 53.3939 441.527Z" fill="#F9F6DA" transform="matrix(-1.0004 -1.22465e-16 1.22514e-16 -1 2357.92 1487.07)"/><path d="M53.3353 45.4729 938.15 45.4729 938.15 114.357 53.3353 114.357Z" fill="#FFFEF8" transform="matrix(1.0004 0 0 1 1366 1000)"/><path d="M932.517-1.76024 983.975-1.76024 983.975 59.0854 932.517 59.0854Z" stroke="#BFB33C" stroke-width="5.86747" stroke-miterlimit="10" fill="#EAE16D" transform="matrix(-1.83771e-16 1 -1.0004 -1.83697e-16 2353.3 70.4167)"/><path d="M972.416 28.6333C972.416 35.2439 966.059 40.6029 958.216 40.6029 950.374 40.6029 944.017 35.2439 944.017 28.6333 944.017 22.0226 950.374 16.6636 958.216 16.6636 966.059 16.6636 972.416 22.0226 972.416 28.6333Z" fill="#F9F6DA" transform="matrix(1.0004 0 0 1 1366 1000)"/><path d="M932.517 427.915 983.975 427.915 983.975 488.76 932.517 488.76Z" stroke="#BFB33C" stroke-width="5.86747" stroke-miterlimit="10" fill="#EAE16D" transform="matrix(-1.83771e-16 1 -1.0004 -1.83697e-16 2783.15 500.099)"/><path d="M972.416 458.367C972.416 464.977 966.059 470.336 958.216 470.336 950.374 470.336 944.017 464.977 944.017 458.367 944.017 451.756 950.374 446.397 958.216 446.397 966.059 446.397 972.416 451.756 972.416 458.367Z" fill="#F9F6DA" transform="matrix(1.0004 0 0 1 1366 1000)"/><path d="M7.62771-1.76024 59.0854-1.76024 59.0854 59.0854 7.62771 59.0854Z" stroke="#BFB33C" stroke-width="5.86747" stroke-miterlimit="10" fill="#F9F5DA" transform="matrix(-1.83771e-16 1 -1.0004 -1.83697e-16 1428.04 995.299)"/><path d="M7.62771 427.915 59.0854 427.915 59.0854 488.76 7.62771 488.76Z" stroke="#BFB33C" stroke-width="5.86747" stroke-miterlimit="10" fill="#EAE16D" transform="matrix(-1.83771e-16 1 -1.0004 -1.83697e-16 1857.9 1424.98)"/><path d="M47.5852 458.367C47.5852 464.977 41.2279 470.336 33.3859 470.336 25.5439 470.336 19.1866 464.977 19.1866 458.367 19.1866 451.756 25.5439 446.397 33.3859 446.397 41.2279 446.397 47.5852 451.756 47.5852 458.367Z" fill="#F9F6DA" transform="matrix(1.0004 0 0 1 1366 1000)"/></g></svg>