<svg width="2179" height="622" xmlns="http://www.w3.org/2000/svg" xmlns:xlink="http://www.w3.org/1999/xlink" xml:space="preserve" overflow="hidden"><defs><clipPath id="clip0"><rect x="650" y="295" width="2179" height="622"/></clipPath></defs><g clip-path="url(#clip0)" transform="translate(-650 -295)"><path d="M650 752.104 650 460.187C650 368.999 723.921 295 815.013 295L1775.55 295C1863.3 295 1951.19 304.177 2037.04 322.24 2147.05 345.401 2247.75 405.27 2320.65 490.923L2348.44 523.406C2389.19 571.331 2389.19 640.814 2348.44 688.593L2320.65 721.077C2247.75 806.729 2147.05 866.599 2037.04 889.76 1951.19 907.822 1863.3 916.999 1775.55 916.999L815.013 916.999C723.921 917.291 650 843.292 650 752.104Z" fill="#243D45" fill-rule="evenodd"/><path d="M884.765 892 910 892 910 321 884.765 321C819.791 321 767 373.914 767 439.038L767 773.962C767 839.087 819.646 892 884.765 892Z" fill="#BCBCBC" fill-rule="evenodd"/><path d="M2322.64 540.123 2294.84 507.698C2225.11 425.981 2130.21 369.71 2024.97 347.609L2024.97 347.609C1940.69 329.87 1854.67 321 1768.49 321L926 321 926 892 1768.64 892C1854.81 892 1940.69 883.13 2025.11 865.391L2025.11 865.391C2130.35 843.29 2225.11 786.873 2294.98 705.302L2322.78 672.877C2355.1 634.49 2355.1 578.365 2322.64 540.123Z" fill="#B35A5E" fill-rule="evenodd"/><path d="M2322.66 540.022 2294.87 507.547C2225.18 425.705 2130.31 369.348 2025.11 347.213L2025.11 347.213C2004.89 342.99 1984.52 339.204 1964 336L1964 422.065C2033.11 422.065 2082.15 497.208 2082.15 497.208L2082.15 715.792C2082.15 715.792 2033.11 790.935 1964 790.935L1964 877C1984.37 873.796 2004.74 870.01 2025.11 865.787L2025.11 865.787C2130.31 843.652 2225.03 787.149 2294.87 705.453L2322.66 672.978C2355.11 634.533 2355.11 578.321 2322.66 540.022Z" fill="#E0E0E0" fill-rule="evenodd"/><path d="M1964.5 879.5 1964.5 791.433C2033.53 791.433 2082.5 716.321 2082.5 716.321L2082.5 497.68C2082.5 497.68 2033.53 422.568 1964.5 422.568L1964.5 334.5" stroke="#243D45" stroke-width="29.2323" stroke-miterlimit="8" fill="none" fill-rule="evenodd"/><path d="M2124.5 687.5 2257.5 687.5" stroke="#FEBE11" stroke-width="29.2323" stroke-miterlimit="8" fill="none" fill-rule="evenodd"/><path d="M2124.5 523.5 2257.5 523.5" stroke="#FEBE11" stroke-width="29.2323" stroke-miterlimit="8" fill="none" fill-rule="evenodd"/><path d="M2124 687 2257 687" stroke="#243D45" stroke-width="9.74409" stroke-miterlimit="8" fill="none" fill-rule="evenodd"/><path d="M2124 523 2257 523" stroke="#243D45" stroke-width="9.74409" stroke-miterlimit="8" fill="none" fill-rule="evenodd"/><path d="M2102 496C2084.4 496 2070 508.063 2070 522.887L2070 538.001 2070 671.999 2070 687.113C2070 701.937 2084.25 714 2102 714L2102 714C2119.6 714 2134 701.937 2134 687.113L2134 671.999 2134 538.001 2134 522.887C2134 508.063 2119.75 496 2102 496L2102 496Z" fill="#FEBE11" fill-rule="evenodd"/><path d="M2101.5 707C2087.95 707 2077 698.118 2077 687.343L2077 522.657C2077 511.882 2087.95 503 2101.5 503 2115.05 503 2126 511.882 2126 522.657L2126 687.343C2126 698.264 2115.05 707 2101.5 707Z" stroke="#243D45" stroke-width="9.74409" stroke-miterlimit="8" fill="none" fill-rule="evenodd"/><path d="M910 892 910 892 910 321 910 321C844.897 321 792 373.914 792 439.038L792 773.962C792 839.087 844.897 892 910 892Z" fill="#E0E0E0" fill-rule="evenodd"/><path d="M806 446 895 446" stroke="#243D45" stroke-width="9.76539" stroke-miterlimit="8" fill="none" fill-rule="evenodd"/><path d="M809 414 895 414" stroke="#243D45" stroke-width="10.096" stroke-miterlimit="8" fill="none" fill-rule="evenodd"/><path d="M809 796 895 796" stroke="#243D45" stroke-width="10.096" stroke-miterlimit="8" fill="none" fill-rule="evenodd"/><path d="M824 382 895 382" stroke="#243D45" stroke-width="10.3089" stroke-miterlimit="8" fill="none" fill-rule="evenodd"/><path d="M824 827 895 827" stroke="#243D45" stroke-width="10.3089" stroke-miterlimit="8" fill="none" fill-rule="evenodd"/><path d="M855 350 895 350" stroke="#243D45" stroke-width="9.99058" stroke-miterlimit="8" fill="none" fill-rule="evenodd"/><path d="M855 859 895 859" stroke="#243D45" stroke-width="9.99058" stroke-miterlimit="8" fill="none" fill-rule="evenodd"/><path d="M806 478 895 478" stroke="#243D45" stroke-width="9.76539" stroke-miterlimit="8" fill="none" fill-rule="evenodd"/><path d="M806 509 895 509" stroke="#243D45" stroke-width="9.76539" stroke-miterlimit="8" fill="none" fill-rule="evenodd"/><path d="M806 541 895 541" stroke="#243D45" stroke-width="9.76539" stroke-miterlimit="8" fill="none" fill-rule="evenodd"/><path d="M806 573 895 573" stroke="#243D45" stroke-width="9.76539" stroke-miterlimit="8" fill="none" fill-rule="evenodd"/><path d="M806 605 895 605" stroke="#243D45" stroke-width="9.76539" stroke-miterlimit="8" fill="none" fill-rule="evenodd"/><path d="M806 637 895 637" stroke="#243D45" stroke-width="9.76539" stroke-miterlimit="8" fill="none" fill-rule="evenodd"/><path d="M806 668 895 668" stroke="#243D45" stroke-width="9.76539" stroke-miterlimit="8" fill="none" fill-rule="evenodd"/><path d="M806 700 895 700" stroke="#243D45" stroke-width="9.76539" stroke-miterlimit="8" fill="none" fill-rule="evenodd"/><path d="M806 732 895 732" stroke="#243D45" stroke-width="9.76539" stroke-miterlimit="8" fill="none" fill-rule="evenodd"/><path d="M806 764 895 764" stroke="#243D45" stroke-width="9.76539" stroke-miterlimit="8" fill="none" fill-rule="evenodd"/><path d="M747 500.5C747 522.315 729.091 540 707 540 684.909 540 667 522.315 667 500.5 667 478.685 684.909 461 707 461 729.091 461 747 478.685 747 500.5Z" fill="#BCBCBC" fill-rule="evenodd"/><path d="M737 500.5C737 517.345 723.345 531 706.5 531 689.655 531 676 517.345 676 500.5 676 483.655 689.655 470 706.5 470 723.345 470 737 483.655 737 500.5Z" fill="#878787" fill-rule="evenodd"/><path d="M747 712.5C747 734.315 729.091 752 707 752 684.909 752 667 734.315 667 712.5 667 690.685 684.909 673 707 673 729.091 673 747 690.685 747 712.5Z" fill="#BCBCBC" fill-rule="evenodd"/><path d="M737 712.5C737 729.345 723.345 743 706.5 743 689.655 743 676 729.345 676 712.5 676 695.655 689.655 682 706.5 682 723.345 682 737 695.655 737 712.5Z" fill="#878787" fill-rule="evenodd"/><path d="M747 606.5C747 628.315 729.091 646 707 646 684.909 646 667 628.315 667 606.5 667 584.685 684.909 567 707 567 729.091 567 747 584.685 747 606.5Z" fill="#BCBCBC" fill-rule="evenodd"/><path d="M737 606.5C737 623.345 723.345 637 706.5 637 689.655 637 676 623.345 676 606.5 676 589.655 689.655 576 706.5 576 723.345 576 737 589.655 737 606.5Z" fill="#878787" fill-rule="evenodd"/><path d="M1099 752.369 1099 460.921C1099 369.88 1172.96 296 1264.11 296L2225.2 296C2313 296 2400.94 305.162 2486.84 323.196 2596.92 346.32 2697.67 406.093 2770.62 491.608L2798.42 524.039C2839.19 571.887 2839.19 641.258 2798.42 688.96L2770.62 721.392C2697.67 806.907 2596.92 866.68 2486.84 889.803 2400.94 907.837 2313 916.999 2225.2 916.999L1264.11 916.999C1172.96 917.29 1099 843.41 1099 752.369Z" fill="#243D45" fill-rule="evenodd"/><path d="M1334.59 892 1360 892 1360 321 1334.59 321C1269.16 321 1216 373.914 1216 439.038L1216 773.962C1216 839.087 1269.01 892 1334.59 892Z" fill="#BCBCBC" fill-rule="evenodd"/><path d="M2772.64 540.123 2744.84 507.698C2675.11 425.981 2580.21 369.71 2474.97 347.609L2474.97 347.609C2390.69 329.87 2304.67 321 2218.49 321L1376 321 1376 892 2218.64 892C2304.81 892 2390.69 883.13 2475.11 865.391L2475.11 865.391C2580.35 843.29 2675.11 786.873 2744.98 705.302L2772.78 672.877C2805.1 634.49 2805.1 578.365 2772.64 540.123Z" fill="#B35A5E" fill-rule="evenodd"/><path d="M2772.67 540.022 2744.87 507.547C2675.18 425.705 2580.31 369.348 2475.11 347.213L2475.11 347.213C2454.89 342.99 2434.52 339.204 2414 336L2414 422.065C2483.11 422.065 2532.15 497.208 2532.15 497.208L2532.15 715.792C2532.15 715.792 2483.11 790.935 2414 790.935L2414 877C2434.37 873.796 2454.74 870.01 2475.11 865.787L2475.11 865.787C2580.31 843.652 2675.03 787.149 2744.87 705.453L2772.67 672.978C2805.11 634.533 2805.11 578.321 2772.67 540.022Z" fill="#E0E0E0" fill-rule="evenodd"/><path d="M2414.5 879.5 2414.5 791.433C2483.53 791.433 2532.5 716.321 2532.5 716.321L2532.5 497.68C2532.5 497.68 2483.53 422.568 2414.5 422.568L2414.5 334.5" stroke="#243D45" stroke-width="29.2323" stroke-miterlimit="8" fill="none" fill-rule="evenodd"/><path d="M2573.5 687.5 2707.5 687.5" stroke="#FEBE11" stroke-width="29.2323" stroke-miterlimit="8" fill="none" fill-rule="evenodd"/><path d="M2573.5 523.5 2707.5 523.5" stroke="#FEBE11" stroke-width="29.2323" stroke-miterlimit="8" fill="none" fill-rule="evenodd"/><path d="M2573 687 2707 687" stroke="#243D45" stroke-width="9.74409" stroke-miterlimit="8" fill="none" fill-rule="evenodd"/><path d="M2573 523 2707 523" stroke="#243D45" stroke-width="9.74409" stroke-miterlimit="8" fill="none" fill-rule="evenodd"/><path d="M2551 496C2533.4 496 2519 508.063 2519 522.887L2519 538.001 2519 671.999 2519 687.113C2519 701.937 2533.25 714 2551 714L2551 714C2568.6 714 2583 701.937 2583 687.113L2583 671.999 2583 538.001 2583 522.887C2583 508.063 2568.75 496 2551 496L2551 496Z" fill="#FEBE11" fill-rule="evenodd"/><path d="M2551 707C2537.18 707 2526 698.118 2526 687.343L2526 522.657C2526 511.882 2537.18 503 2551 503 2564.82 503 2576 511.882 2576 522.657L2576 687.343C2576 698.264 2564.82 707 2551 707Z" stroke="#243D45" stroke-width="9.74409" stroke-miterlimit="8" fill="none" fill-rule="evenodd"/><path d="M1360 892 1360 892 1360 321 1360 321C1294.34 321 1241 373.914 1241 439.038L1241 773.962C1241 839.087 1294.34 892 1360 892Z" fill="#E0E0E0" fill-rule="evenodd"/><path d="M1256 446 1345 446" stroke="#243D45" stroke-width="9.76539" stroke-miterlimit="8" fill="none" fill-rule="evenodd"/><path d="M1259 414 1345 414" stroke="#243D45" stroke-width="10.096" stroke-miterlimit="8" fill="none" fill-rule="evenodd"/><path d="M1259 796 1345 796" stroke="#243D45" stroke-width="10.096" stroke-miterlimit="8" fill="none" fill-rule="evenodd"/><path d="M1273 382 1345 382" stroke="#243D45" stroke-width="10.3089" stroke-miterlimit="8" fill="none" fill-rule="evenodd"/><path d="M1273 828 1345 828" stroke="#243D45" stroke-width="10.3089" stroke-miterlimit="8" fill="none" fill-rule="evenodd"/><path d="M1305 351 1345 351" stroke="#243D45" stroke-width="9.99058" stroke-miterlimit="8" fill="none" fill-rule="evenodd"/><path d="M1305 860 1345 860" stroke="#243D45" stroke-width="9.99058" stroke-miterlimit="8" fill="none" fill-rule="evenodd"/><path d="M1256 478 1345 478" stroke="#243D45" stroke-width="9.76539" stroke-miterlimit="8" fill="none" fill-rule="evenodd"/><path d="M1256 510 1345 510" stroke="#243D45" stroke-width="9.76539" stroke-miterlimit="8" fill="none" fill-rule="evenodd"/><path d="M1256 541 1345 541" stroke="#243D45" stroke-width="9.76539" stroke-miterlimit="8" fill="none" fill-rule="evenodd"/><path d="M1256 573 1345 573" stroke="#243D45" stroke-width="9.76539" stroke-miterlimit="8" fill="none" fill-rule="evenodd"/><path d="M1256 605 1345 605" stroke="#243D45" stroke-width="9.76539" stroke-miterlimit="8" fill="none" fill-rule="evenodd"/><path d="M1256 637 1345 637" stroke="#243D45" stroke-width="9.76539" stroke-miterlimit="8" fill="none" fill-rule="evenodd"/><path d="M1256 669 1345 669" stroke="#243D45" stroke-width="9.76539" stroke-miterlimit="8" fill="none" fill-rule="evenodd"/><path d="M1256 701 1345 701" stroke="#243D45" stroke-width="9.76539" stroke-miterlimit="8" fill="none" fill-rule="evenodd"/><path d="M1256 732 1345 732" stroke="#243D45" stroke-width="9.76539" stroke-miterlimit="8" fill="none" fill-rule="evenodd"/><path d="M1256 764 1345 764" stroke="#243D45" stroke-width="9.76539" stroke-miterlimit="8" fill="none" fill-rule="evenodd"/><path d="M1196 500.5C1196 522.315 1178.32 540 1156.5 540 1134.68 540 1117 522.315 1117 500.5 1117 478.685 1134.68 461 1156.5 461 1178.32 461 1196 478.685 1196 500.5Z" fill="#BCBCBC" fill-rule="evenodd"/><path d="M1187 500.5C1187 517.345 1173.34 531 1156.5 531 1139.66 531 1126 517.345 1126 500.5 1126 483.655 1139.66 470 1156.5 470 1173.34 470 1187 483.655 1187 500.5Z" fill="#878787" fill-rule="evenodd"/><path d="M1196 712.5C1196 734.315 1178.32 752 1156.5 752 1134.68 752 1117 734.315 1117 712.5 1117 690.685 1134.68 673 1156.5 673 1178.32 673 1196 690.685 1196 712.5Z" fill="#BCBCBC" fill-rule="evenodd"/><path d="M1187 712.5C1187 729.345 1173.34 743 1156.5 743 1139.66 743 1126 729.345 1126 712.5 1126 695.655 1139.66 682 1156.5 682 1173.34 682 1187 695.655 1187 712.5Z" fill="#878787" fill-rule="evenodd"/><path d="M1196 606.5C1196 628.315 1178.32 646 1156.5 646 1134.68 646 1117 628.315 1117 606.5 1117 584.685 1134.68 567 1156.5 567 1178.32 567 1196 584.685 1196 606.5Z" fill="#BCBCBC" fill-rule="evenodd"/><path d="M1187 606.5C1187 623.345 1173.34 637 1156.5 637 1139.66 637 1126 623.345 1126 606.5 1126 589.655 1139.66 576 1156.5 576 1173.34 576 1187 589.655 1187 606.5Z" fill="#878787" fill-rule="evenodd"/><rect x="1019" y="321" width="357" height="571" fill="#B35A5E"/></g></svg>