<svg width="4400" height="1256" xmlns="http://www.w3.org/2000/svg" xmlns:xlink="http://www.w3.org/1999/xlink" xml:space="preserve" overflow="hidden"><defs><clipPath id="clip0"><rect x="0" y="609" width="4400" height="1256"/></clipPath></defs><g clip-path="url(#clip0)" transform="matrix(1 0 0 1 0 -609)"><path d="M333.207 609 2272.8 609 2350.22 611.019 3180.76 611.019C3358.06 611.019 3535.63 629.52 3709.09 665.936 3931.37 712.63 4134.81 833.329 4282.12 1006.01L4338.26 1071.5C4420.58 1168.12 4420.58 1308.2 4338.26 1404.52L4282.12 1470.01C4134.81 1642.69 3931.37 1763.39 3709.09 1810.08 3535.63 1846.5 3358.06 1865 3180.76 1865L2272.81 1865 2272.8 1865 333.207 1865C149.267 1865.59 0 1716.16 0 1532.03L0 942.561C0 758.426 149.267 609 333.207 609Z" fill="#243D45" fill-rule="evenodd" fill-opacity="0.501961"/></g></svg>