<svg width="553" height="553" xmlns="http://www.w3.org/2000/svg" xmlns:xlink="http://www.w3.org/1999/xlink" xml:space="preserve" overflow="hidden"><defs><clipPath id="clip0"><rect x="1835" y="1489" width="553" height="553"/></clipPath></defs><g clip-path="url(#clip0)" transform="translate(-1835 -1489)"><rect x="1835" y="1489" width="553" height="553" fill="#000000" fill-opacity="0.188235"/><rect x="1844" y="1498" width="535" height="535" fill="#000000" fill-opacity="0.188235"/><path d="M1850 1504 1850 1857.58 1850 2016.82 1850 2026 2372 2026 2372 1504Z" fill="#EAE16D" fill-rule="evenodd"/><path d="M2348.8 1504 1850 2002.8 1850 2016.82 1850 2026 1853.96 2026 2372 1507.96 2372 1504Z" fill-rule="evenodd"/><path d="M1850 1686.83 1850 1714 2060 1504 2032.83 1504Z" fill-rule="evenodd"/><path d="M1850 1813.78 1850 1841 2187 1504 2159.78 1504Z" fill-rule="evenodd"/><path d="M1850 1749.94 1850 1777 2123 1504 2095.94 1504Z" fill-rule="evenodd"/><path d="M1850 1904 2250 1504 2222.8 1504 1850 1876.8Z" fill-rule="evenodd"/><path d="M2285.91 1504 1850 1939.91 1850 1967 2313 1504Z" fill-rule="evenodd"/><path d="M1871 1504 1850 1504 1850 1525Z" fill-rule="evenodd"/><path d="M1850 1560.71 1850 1588 1934 1504 1906.71 1504Z" fill-rule="evenodd"/><path d="M1850 1623.89 1850 1651 1997 1504 1969.89 1504Z" fill-rule="evenodd"/><path d="M2233.07 2026 2372 1887.07 2372 1860 2206 2026Z" fill-rule="evenodd"/><path d="M2170.14 2026 2372 1824.14 2372 1797 2143 2026Z" fill-rule="evenodd"/><path d="M2296.2 2026 2372 1950.2 2372 1923 2269 2026Z" fill-rule="evenodd"/><path d="M2359.41 2026 2372 2013.73 2372 1987 2332 2026Z" fill-rule="evenodd"/><path d="M2044.03 2026 2372 1698.03 2372 1671 2017 2026Z" fill-rule="evenodd"/><path d="M1917.07 2026 2372 1571.07 2372 1544 1890 2026Z" fill-rule="evenodd"/><path d="M1980.18 2026 2372 1635.11 2372 1608 1953 2026Z" fill-rule="evenodd"/><path d="M2107.12 2026 2372 1761.12 2372 1734 2080 2026Z" fill-rule="evenodd"/><path d="M1859 1514 2363 1514 2363 2017 1859 2017Z" fill="#DDDDDD" fill-rule="evenodd"/><path d="M2363 1765 2372 1765 2372 1849 2363 1849Z" fill="#DDDDDD" fill-rule="evenodd"/><path d="M1859.5 1513.5 1943.5 1513.5 1943.5 1597.5 1859.5 1597.5Z" stroke="#C0BBB5" stroke-width="7.21568" stroke-miterlimit="8" fill="none" fill-rule="evenodd"/><path d="M1943.5 1513.5 2027.5 1513.5 2027.5 1597.5 1943.5 1597.5Z" stroke="#C0BBB5" stroke-width="7.21568" stroke-miterlimit="8" fill="none" fill-rule="evenodd"/><path d="M2027.5 1513.5 2111.5 1513.5 2111.5 1597.5 2027.5 1597.5Z" stroke="#C0BBB5" stroke-width="7.21568" stroke-miterlimit="8" fill="none" fill-rule="evenodd"/><path d="M2111.5 1513.5 2195.5 1513.5 2195.5 1597.5 2111.5 1597.5Z" stroke="#C0BBB5" stroke-width="7.21568" stroke-miterlimit="8" fill="none" fill-rule="evenodd"/><path d="M2195.5 1513.5 2279.5 1513.5 2279.5 1597.5 2195.5 1597.5Z" stroke="#C0BBB5" stroke-width="7.21568" stroke-miterlimit="8" fill="none" fill-rule="evenodd"/><path d="M2279.5 1513.5 2363.5 1513.5 2363.5 1597.5 2279.5 1597.5Z" stroke="#C0BBB5" stroke-width="7.21568" stroke-miterlimit="8" fill="none" fill-rule="evenodd"/><path d="M1859.5 1597.5 1943.5 1597.5 1943.5 1681.5 1859.5 1681.5Z" stroke="#C0BBB5" stroke-width="7.21568" stroke-miterlimit="8" fill="none" fill-rule="evenodd"/><path d="M1943.5 1597.5 2027.5 1597.5 2027.5 1681.5 1943.5 1681.5Z" stroke="#C0BBB5" stroke-width="7.21568" stroke-miterlimit="8" fill="none" fill-rule="evenodd"/><path d="M2027.5 1597.5 2111.5 1597.5 2111.5 1681.5 2027.5 1681.5Z" stroke="#C0BBB5" stroke-width="7.21568" stroke-miterlimit="8" fill="none" fill-rule="evenodd"/><path d="M2111.5 1597.5 2195.5 1597.5 2195.5 1681.5 2111.5 1681.5Z" stroke="#C0BBB5" stroke-width="7.21568" stroke-miterlimit="8" fill="none" fill-rule="evenodd"/><path d="M2195.5 1597.5 2279.5 1597.5 2279.5 1681.5 2195.5 1681.5Z" stroke="#C0BBB5" stroke-width="7.21568" stroke-miterlimit="8" fill="none" fill-rule="evenodd"/><path d="M2279.5 1597.5 2363.5 1597.5 2363.5 1681.5 2279.5 1681.5Z" stroke="#C0BBB5" stroke-width="7.21568" stroke-miterlimit="8" fill="none" fill-rule="evenodd"/><path d="M1859.5 1681.5 1943.5 1681.5 1943.5 1765.5 1859.5 1765.5Z" stroke="#C0BBB5" stroke-width="7.21568" stroke-miterlimit="8" fill="none" fill-rule="evenodd"/><path d="M1943.5 1681.5 2027.5 1681.5 2027.5 1765.5 1943.5 1765.5Z" stroke="#C0BBB5" stroke-width="7.21568" stroke-miterlimit="8" fill="none" fill-rule="evenodd"/><path d="M2027.5 1681.5 2111.5 1681.5 2111.5 1765.5 2027.5 1765.5Z" stroke="#C0BBB5" stroke-width="7.21568" stroke-miterlimit="8" fill="none" fill-rule="evenodd"/><path d="M2111.5 1681.5 2195.5 1681.5 2195.5 1765.5 2111.5 1765.5Z" stroke="#C0BBB5" stroke-width="7.21568" stroke-miterlimit="8" fill="none" fill-rule="evenodd"/><path d="M2195.5 1681.5 2279.5 1681.5 2279.5 1765.5 2195.5 1765.5Z" stroke="#C0BBB5" stroke-width="7.21568" stroke-miterlimit="8" fill="none" fill-rule="evenodd"/><path d="M2279.5 1681.5 2363.5 1681.5 2363.5 1765.5 2279.5 1765.5Z" stroke="#C0BBB5" stroke-width="7.21568" stroke-miterlimit="8" fill="none" fill-rule="evenodd"/><path d="M1859.5 1765.5 1943.5 1765.5 1943.5 1849.5 1859.5 1849.5Z" stroke="#C0BBB5" stroke-width="7.21568" stroke-miterlimit="8" fill="none" fill-rule="evenodd"/><path d="M1943.5 1765.5 2027.5 1765.5 2027.5 1849.5 1943.5 1849.5Z" stroke="#C0BBB5" stroke-width="7.21568" stroke-miterlimit="8" fill="none" fill-rule="evenodd"/><path d="M2027.5 1765.5 2111.5 1765.5 2111.5 1849.5 2027.5 1849.5Z" stroke="#C0BBB5" stroke-width="7.21568" stroke-miterlimit="8" fill="none" fill-rule="evenodd"/><path d="M2111.5 1765.5 2195.5 1765.5 2195.5 1849.5 2111.5 1849.5Z" stroke="#C0BBB5" stroke-width="7.21568" stroke-miterlimit="8" fill="none" fill-rule="evenodd"/><path d="M2195.5 1765.5 2279.5 1765.5 2279.5 1849.5 2195.5 1849.5Z" stroke="#C0BBB5" stroke-width="7.21568" stroke-miterlimit="8" fill="none" fill-rule="evenodd"/><path d="M2279.5 1765.5 2363.5 1765.5 2363.5 1849.5 2279.5 1849.5Z" stroke="#C0BBB5" stroke-width="7.21568" stroke-miterlimit="8" fill="none" fill-rule="evenodd"/><path d="M1859.5 1849.5 1943.5 1849.5 1943.5 1933.5 1859.5 1933.5Z" stroke="#C0BBB5" stroke-width="7.21568" stroke-miterlimit="8" fill="none" fill-rule="evenodd"/><path d="M1943.5 1849.5 2027.5 1849.5 2027.5 1933.5 1943.5 1933.5Z" stroke="#C0BBB5" stroke-width="7.21568" stroke-miterlimit="8" fill="none" fill-rule="evenodd"/><path d="M2027.5 1849.5 2111.5 1849.5 2111.5 1933.5 2027.5 1933.5Z" stroke="#C0BBB5" stroke-width="7.21568" stroke-miterlimit="8" fill="none" fill-rule="evenodd"/><path d="M2111.5 1849.5 2195.5 1849.5 2195.5 1933.5 2111.5 1933.5Z" stroke="#C0BBB5" stroke-width="7.21568" stroke-miterlimit="8" fill="none" fill-rule="evenodd"/><path d="M2195.5 1849.5 2279.5 1849.5 2279.5 1933.5 2195.5 1933.5Z" stroke="#C0BBB5" stroke-width="7.21568" stroke-miterlimit="8" fill="none" fill-rule="evenodd"/><path d="M2279.5 1849.5 2363.5 1849.5 2363.5 1933.5 2279.5 1933.5Z" stroke="#C0BBB5" stroke-width="7.21568" stroke-miterlimit="8" fill="none" fill-rule="evenodd"/><path d="M1859.5 1933.5 1943.5 1933.5 1943.5 2017.5 1859.5 2017.5Z" stroke="#C0BBB5" stroke-width="7.21568" stroke-miterlimit="8" fill="none" fill-rule="evenodd"/><path d="M1943.5 1933.5 2027.5 1933.5 2027.5 2017.5 1943.5 2017.5Z" stroke="#C0BBB5" stroke-width="7.21568" stroke-miterlimit="8" fill="none" fill-rule="evenodd"/><path d="M2027.5 1933.5 2111.5 1933.5 2111.5 2017.5 2027.5 2017.5Z" stroke="#C0BBB5" stroke-width="7.21568" stroke-miterlimit="8" fill="none" fill-rule="evenodd"/><path d="M2111.5 1933.5 2195.5 1933.5 2195.5 2017.5 2111.5 2017.5Z" stroke="#C0BBB5" stroke-width="7.21568" stroke-miterlimit="8" fill="none" fill-rule="evenodd"/><path d="M2195.5 1933.5 2279.5 1933.5 2279.5 2017.5 2195.5 2017.5Z" stroke="#C0BBB5" stroke-width="7.21568" stroke-miterlimit="8" fill="none" fill-rule="evenodd"/><path d="M2279.5 1933.5 2363.5 1933.5 2363.5 2017.5 2279.5 2017.5Z" stroke="#C0BBB5" stroke-width="7.21568" stroke-miterlimit="8" fill="none" fill-rule="evenodd"/><g><g><g><path d="M42.1645-37.9574 115.836-37.9574 115.836 115.555 42.1645 115.555Z" stroke="#BFB33C" stroke-width="0.934912" stroke-miterlimit="10" fill="#EAE16D" transform="matrix(-1.00518 -1.22147e-16 1.23417e-16 -1 1981.4 1719.8)"/><path d="M8.5077 7.29231 149.492 7.29231 149.492 70.3989 8.50769 70.3989Z" fill="#F9F5DA" transform="matrix(6.18676e-17 -1 1.00518 6.09152e-17 1862.99 1759.99)"/><path d="M148.558-0.280474 156.785-0.280474 156.785 9.44261 148.558 9.44261Z" stroke="#BFB33C" stroke-width="0.934912" stroke-miterlimit="10" fill="#EAE16D" transform="matrix(-1.00518 -1.22147e-16 1.23417e-16 -1 2089.89 1759.25)"/><path d="M154.915 4.58107C154.915 5.61374 153.91 6.45089 152.671 6.45089 151.432 6.45089 150.427 5.61374 150.427 4.58107 150.427 3.54839 151.432 2.71125 152.671 2.71125 153.91 2.71125 154.915 3.54839 154.915 4.58107Z" fill="#F9F5DA" transform="matrix(6.12323e-17 1 -1.00518 6.15498e-17 1941 1602)"/><path d="M148.558 68.1551 156.785 68.1551 156.785 77.8782 148.558 77.8782Z" stroke="#BFB33C" stroke-width="0.934912" stroke-miterlimit="10" fill="#EAE16D" transform="matrix(-1.00518 -1.22147e-16 1.23417e-16 -1 2021.07 1827.72)"/><path d="M154.915 73.0166C154.915 74.0493 153.91 74.8865 152.671 74.8865 151.432 74.8865 150.427 74.0493 150.427 73.0166 150.427 71.984 151.432 71.1468 152.671 71.1468 153.91 71.1468 154.915 71.984 154.915 73.0166Z" fill="#F9F5DA" transform="matrix(6.12323e-17 1 -1.00518 6.15498e-17 1941 1602)"/><path d="M1.21539-0.280474 9.44261-0.280474 9.44261 9.44261 1.21539 9.44261Z" stroke="#BFB33C" stroke-width="0.934912" stroke-miterlimit="10" fill="#EAE16D" transform="matrix(-1.00518 -1.22147e-16 1.23417e-16 -1 1941.75 1611.88)"/><path d="M7.57279 4.58107C7.57279 5.61374 6.56821 6.45089 5.329 6.45089 4.08979 6.45089 3.08521 5.61374 3.08521 4.58107 3.08521 3.54839 4.08979 2.71125 5.329 2.71125 6.56821 2.71125 7.57279 3.54839 7.57279 4.58107Z" fill="#F9F5DA" transform="matrix(6.12323e-17 1 -1.00518 6.15498e-17 1941 1602)"/><path d="M1.21539 68.1551 9.44261 68.1551 9.44261 77.8782 1.21539 77.8782Z" stroke="#BFB33C" stroke-width="0.934912" stroke-miterlimit="10" fill="#EAE16D" transform="matrix(-1.00518 -1.22147e-16 1.23417e-16 -1 1872.93 1680.35)"/><path d="M7.57279 73.0166C7.57279 74.0493 6.56821 74.8865 5.329 74.8865 4.08979 74.8865 3.08521 74.0493 3.08521 73.0166 3.08521 71.984 4.08979 71.1468 5.329 71.1468 6.56821 71.1468 7.57279 71.984 7.57279 73.0166Z" fill="#F9F5DA" transform="matrix(6.12323e-17 1 -1.00518 6.15498e-17 1941 1602)"/></g></g></g><g><g><g><path d="M42.1645-37.9574 115.836-37.9574 115.836 115.555 42.1645 115.555Z" stroke="#BFB33C" stroke-width="0.934912" stroke-miterlimit="10" fill="#EAE16D" transform="matrix(-1.00518 -1.22147e-16 1.23417e-16 -1 2232.4 1719.8)"/><path d="M8.5077 7.29231 149.492 7.29231 149.492 70.3989 8.50769 70.3989Z" fill="#F9F5DA" transform="matrix(6.18676e-17 -1 1.00518 6.09152e-17 2113.99 1759.99)"/><path d="M148.558-0.280474 156.785-0.280474 156.785 9.44261 148.558 9.44261Z" stroke="#BFB33C" stroke-width="0.934912" stroke-miterlimit="10" fill="#EAE16D" transform="matrix(-1.00518 -1.22147e-16 1.23417e-16 -1 2340.89 1759.25)"/><path d="M154.915 4.58107C154.915 5.61374 153.91 6.45089 152.671 6.45089 151.432 6.45089 150.427 5.61374 150.427 4.58107 150.427 3.54839 151.432 2.71125 152.671 2.71125 153.91 2.71125 154.915 3.54839 154.915 4.58107Z" fill="#F9F5DA" transform="matrix(6.12323e-17 1 -1.00518 6.15498e-17 2192 1602)"/><path d="M148.558 68.1551 156.785 68.1551 156.785 77.8782 148.558 77.8782Z" stroke="#BFB33C" stroke-width="0.934912" stroke-miterlimit="10" fill="#EAE16D" transform="matrix(-1.00518 -1.22147e-16 1.23417e-16 -1 2272.07 1827.72)"/><path d="M154.915 73.0166C154.915 74.0493 153.91 74.8865 152.671 74.8865 151.432 74.8865 150.427 74.0493 150.427 73.0166 150.427 71.984 151.432 71.1468 152.671 71.1468 153.91 71.1468 154.915 71.984 154.915 73.0166Z" fill="#F9F5DA" transform="matrix(6.12323e-17 1 -1.00518 6.15498e-17 2192 1602)"/><path d="M1.21539-0.280474 9.44261-0.280474 9.44261 9.44261 1.21539 9.44261Z" stroke="#BFB33C" stroke-width="0.934912" stroke-miterlimit="10" fill="#EAE16D" transform="matrix(-1.00518 -1.22147e-16 1.23417e-16 -1 2192.75 1611.88)"/><path d="M7.57279 4.58107C7.57279 5.61374 6.56821 6.45089 5.329 6.45089 4.08979 6.45089 3.08521 5.61374 3.08521 4.58107 3.08521 3.54839 4.08979 2.71125 5.329 2.71125 6.56821 2.71125 7.57279 3.54839 7.57279 4.58107Z" fill="#F9F5DA" transform="matrix(6.12323e-17 1 -1.00518 6.15498e-17 2192 1602)"/><path d="M1.21539 68.1551 9.44261 68.1551 9.44261 77.8782 1.21539 77.8782Z" stroke="#BFB33C" stroke-width="0.934912" stroke-miterlimit="10" fill="#EAE16D" transform="matrix(-1.00518 -1.22147e-16 1.23417e-16 -1 2123.93 1680.35)"/><path d="M7.57279 73.0166C7.57279 74.0493 6.56821 74.8865 5.329 74.8865 4.08979 74.8865 3.08521 74.0493 3.08521 73.0166 3.08521 71.984 4.08979 71.1468 5.329 71.1468 6.56821 71.1468 7.57279 71.984 7.57279 73.0166Z" fill="#F9F5DA" transform="matrix(6.12323e-17 1 -1.00518 6.15498e-17 2192 1602)"/></g></g></g><g><g><g><path d="M41.8398-37.6651 114.943-37.6651 114.943 114.665 41.8398 114.665Z" stroke="#BFB33C" stroke-width="0.927711" stroke-miterlimit="10" fill="#EAE16D" transform="matrix(-1.85123e-16 1 -1.00776 -1.83697e-16 2149.8 1813.12)"/><path d="M8.44217 7.23614 148.341 7.23614 148.341 69.8566 8.44216 69.8566Z" fill="#F9F5DA" transform="matrix(-1.00776 -1.22465e-16 1.23416e-16 -1 2189.99 1930.01)"/><path d="M147.413-0.278313 155.577-0.278313 155.577 9.36988 147.413 9.36988Z" stroke="#BFB33C" stroke-width="0.927711" stroke-miterlimit="10" fill="#EAE16D" transform="matrix(-1.85123e-16 1 -1.00776 -1.83697e-16 2189.25 1706.02)"/><path d="M153.722 4.54578C153.722 5.5705 152.725 6.4012 151.495 6.4012 150.266 6.4012 149.269 5.5705 149.269 4.54578 149.269 3.52106 150.266 2.69036 151.495 2.69036 152.725 2.69036 153.722 3.52106 153.722 4.54578Z" fill="#F9F5DA" transform="matrix(1.00776 0 0 1 2032 1853)"/><path d="M147.413 67.6301 155.577 67.6301 155.577 77.2783 147.413 77.2783Z" stroke="#BFB33C" stroke-width="0.927711" stroke-miterlimit="10" fill="#EAE16D" transform="matrix(-1.85123e-16 1 -1.00776 -1.83697e-16 2257.72 1773.96)"/><path d="M153.722 72.4542C153.722 73.4789 152.725 74.3096 151.495 74.3096 150.266 74.3096 149.269 73.4789 149.269 72.4542 149.269 71.4295 150.266 70.5988 151.495 70.5988 152.725 70.5988 153.722 71.4295 153.722 72.4542Z" fill="#F9F5DA" transform="matrix(1.00776 0 0 1 2032 1853)"/><path d="M1.20602-0.278313 9.36988-0.278313 9.36988 9.36988 1.20602 9.36988Z" stroke="#BFB33C" stroke-width="0.927711" stroke-miterlimit="10" fill="#EAE16D" transform="matrix(-1.85123e-16 1 -1.00776 -1.83697e-16 2041.88 1852.26)"/><path d="M7.51446 4.54578C7.51446 5.5705 6.51762 6.4012 5.28795 6.4012 4.05829 6.4012 3.06145 5.5705 3.06145 4.54578 3.06145 3.52106 4.05829 2.69036 5.28795 2.69036 6.51762 2.69036 7.51446 3.52106 7.51446 4.54578Z" fill="#F9F5DA" transform="matrix(1.00776 0 0 1 2032 1853)"/><path d="M1.20602 67.6301 9.36988 67.6301 9.36988 77.2783 1.20602 77.2783Z" stroke="#BFB33C" stroke-width="0.927711" stroke-miterlimit="10" fill="#EAE16D" transform="matrix(-1.85123e-16 1 -1.00776 -1.83697e-16 2110.35 1920.19)"/><path d="M7.51446 72.4542C7.51446 73.4789 6.51762 74.3096 5.28795 74.3096 4.05829 74.3096 3.06145 73.4789 3.06145 72.4542 3.06145 71.4295 4.05829 70.5988 5.28795 70.5988 6.51762 70.5988 7.51446 71.4295 7.51446 72.4542Z" fill="#F9F5DA" transform="matrix(1.00776 0 0 1 2032 1853)"/></g></g></g></g></svg>