<svg width="562" height="555" xmlns="http://www.w3.org/2000/svg" xmlns:xlink="http://www.w3.org/1999/xlink" xml:space="preserve" overflow="hidden"><g transform="translate(-2757 -1618)"><g><g><g><path d="M139.073-123.211 392.091-123.211 392.091 391.279 139.073 391.279Z" stroke="#4A92B7" stroke-width="4.7935" stroke-miterlimit="10" fill="#A3CEE7" transform="matrix(-1.93834e-16 1 -1.05519 -1.83697e-16 3179.39 1486.44)"/><path d="M29.3231 25.6704 501.841 25.6704 501.841 242.364 29.3231 242.364Z" fill="#FFFFFF" fill-opacity="0.75" transform="matrix(-1.05519 -1.22465e-16 1.29223e-16 -1 3318.21 1886.05)"/><path d="M498.492 0.236749 526.632 0.236749 526.632 32.739 498.492 32.739Z" stroke="#4A92B7" stroke-width="4.7935" stroke-miterlimit="10" fill="#A3CEE7" transform="matrix(-1.93834e-16 1 -1.05519 -1.83697e-16 3315.96 1121.9)"/><path d="M520.138 16.471C520.138 20.0947 516.746 23.0323 512.562 23.0323 508.378 23.0323 504.986 20.0947 504.986 16.471 504.986 12.8473 508.378 9.90965 512.562 9.90965 516.746 9.90965 520.138 12.8473 520.138 16.471Z" fill="#FFFFFF" fill-opacity="0.75" transform="matrix(1.05519 0 0 1 2757.73 1618)"/><path d="M498.492 235.295 526.632 235.295 526.632 267.797 498.492 267.797Z" stroke="#4A92B7" stroke-width="4.7935" stroke-miterlimit="10" fill="#A3CEE7" transform="matrix(-1.93834e-16 1 -1.05519 -1.83697e-16 3564 1356.96)"/><path d="M520.138 251.529C520.138 255.153 516.746 258.09 512.562 258.09 508.378 258.09 504.986 255.153 504.986 251.529 504.986 247.905 508.378 244.968 512.562 244.968 516.746 244.968 520.138 247.905 520.138 251.529Z" fill="#FFFFFF" fill-opacity="0.75" transform="matrix(1.05519 0 0 1 2757.73 1618)"/><path d="M2.16456 2.63806 30.3039 2.63806 30.3039 30.3039 2.16456 30.3039Z" stroke="#4A92B7" stroke-width="4.7935" stroke-miterlimit="10" fill="#A3CEE7" transform="matrix(-1.93834e-16 1 -1.05519 -1.83697e-16 2792.23 1618.24)"/><path d="M26.2115 16.471C26.2115 20.0947 22.8196 23.0323 18.6355 23.0323 14.4515 23.0323 11.0596 20.0947 11.0596 16.471 11.0596 12.8473 14.4515 9.90965 18.6355 9.90965 22.8196 9.90965 26.2115 12.8473 26.2115 16.471Z" fill="#FFFFFF" fill-opacity="0.75" transform="matrix(1.05519 0 0 1 2757.73 1618)"/><path d="M4.56588 235.295 32.7052 235.295 32.7052 267.797 4.56588 267.797Z" stroke="#4A92B7" stroke-width="4.7935" stroke-miterlimit="10" fill="#A3CEE7" transform="matrix(-1.93834e-16 1 -1.05519 -1.83697e-16 3042.82 1850.89)"/><path d="M26.2115 251.529C26.2115 255.153 22.8196 258.09 18.6355 258.09 14.4515 258.09 11.0596 255.153 11.0596 251.529 11.0596 247.905 14.4515 244.968 18.6355 244.968 22.8196 244.968 26.2115 247.905 26.2115 251.529Z" fill="#FFFFFF" fill-opacity="0.75" transform="matrix(1.05519 0 0 1 2757.73 1618)"/></g></g></g><path d="M3090.48 1846.48 3076.28 1861.73 3110.93 1894 3082.52 1924.5 3047.87 1892.23 3033.67 1907.48 2985.57 1805.73Z" stroke="#000000" stroke-width="4.58333" stroke-miterlimit="8" fill="#FFFFFF" fill-rule="evenodd"/><path d="M3120.25 2085.33C3108.78 2065.63 3115.46 2040.37 3135.16 2028.91L3155.27 2017.22C3174.97 2005.76 3200.23 2012.44 3211.69 2032.14L3249.25 2096.71C3260.71 2116.41 3254.03 2141.68 3234.33 2153.14L3214.23 2164.83C3194.53 2176.29 3169.27 2169.61 3157.81 2149.91Z" stroke="#000000" stroke-width="4.58333" stroke-miterlimit="8" fill="#FFFFFF" fill-rule="evenodd"/><path d="M3125.76 2094.81 3217.2 2041.62" stroke="#000000" stroke-width="4.58333" stroke-miterlimit="8" fill="none" fill-rule="evenodd"/><path d="M0 0 0.000360892 8.11467" stroke="#000000" stroke-width="4.58333" stroke-miterlimit="8" fill="none" fill-rule="evenodd" transform="matrix(0.864378 -0.502842 -0.502842 -0.864378 3149.3 2030.08)"/><path d="M3125.96 2095.02 3119.72 2083.85 3115.44 2073.05 3114.69 2062.7 3116.34 2053.46 3119.15 2045.8 3123.3 2039.12 3128.5 2033.83 3135.46 2028.53 3145.66 2022.35 3170.76 2068.96 3125.96 2095.02Z" fill="#0D0D0D" fill-rule="evenodd"/><path d="M3146.27 2041.51C3143.95 2037.52 3145.3 2032.4 3149.3 2030.08L3149.3 2030.08C3153.29 2027.76 3158.41 2029.11 3160.73 2033.1L3178.55 2063.74C3180.87 2067.73 3179.52 2072.85 3175.53 2075.17L3175.53 2075.17C3171.53 2077.49 3166.42 2076.14 3164.09 2072.15Z" stroke="#000000" stroke-width="4.58333" stroke-miterlimit="8" fill="#FFFFFF" fill-rule="evenodd"/></g></svg>