<svg width="158" height="78" xmlns="http://www.w3.org/2000/svg" xmlns:xlink="http://www.w3.org/1999/xlink" xml:space="preserve" overflow="hidden"><g transform="translate(-1867 -1516)"><path d="M2022.5 1518.5 2022.5 1591.5 1869.5 1591.5 1869.5 1518.5Z" stroke="#BFB33C" stroke-width="0.915223" stroke-miterlimit="8" fill="#9DC3E6" fill-rule="evenodd"/><path d="M2016 1586 1875 1586 1875 1523 2016 1523Z" fill="#DEEBF7" fill-rule="evenodd"/><path d="M2024.5 1516.5 2024.5 1524.5 2014.5 1524.5 2014.5 1516.5Z" stroke="#BFB33C" stroke-width="0.915223" stroke-miterlimit="8" fill="#9DC3E6" fill-rule="evenodd"/><path d="M2021 1520C2021 1521.1 2020.1 1522 2019 1522 2017.9 1522 2017 1521.1 2017 1520 2017 1518.9 2017.9 1518 2019 1518 2020.1 1518 2021 1518.9 2021 1520Z" fill="#F9F5DA" fill-rule="evenodd"/><path d="M2024.5 1585.5 2024.5 1593.5 2014.5 1593.5 2014.5 1585.5Z" stroke="#BFB33C" stroke-width="0.915223" stroke-miterlimit="8" fill="#9DC3E6" fill-rule="evenodd"/><path d="M2021 1588.5C2021 1589.33 2020.1 1590 2019 1590 2017.9 1590 2017 1589.33 2017 1588.5 2017 1587.67 2017.9 1587 2019 1587 2020.1 1587 2021 1587.67 2021 1588.5Z" fill="#F9F5DA" fill-rule="evenodd"/><path d="M1877.5 1516.5 1877.5 1524.5 1867.5 1524.5 1867.5 1516.5Z" stroke="#BFB33C" stroke-width="0.915223" stroke-miterlimit="8" fill="#9DC3E6" fill-rule="evenodd"/><path d="M1874 1520C1874 1521.1 1873.1 1522 1872 1522 1870.9 1522 1870 1521.1 1870 1520 1870 1518.9 1870.9 1518 1872 1518 1873.1 1518 1874 1518.9 1874 1520Z" fill="#F9F5DA" fill-rule="evenodd"/><path d="M1877.5 1585.5 1877.5 1593.5 1867.5 1593.5 1867.5 1585.5Z" stroke="#BFB33C" stroke-width="0.915223" stroke-miterlimit="8" fill="#9DC3E6" fill-rule="evenodd"/><path d="M1874 1588.5C1874 1589.33 1873.1 1590 1872 1590 1870.9 1590 1870 1589.33 1870 1588.5 1870 1587.67 1870.9 1587 1872 1587 1873.1 1587 1874 1587.67 1874 1588.5Z" fill="#F9F5DA" fill-rule="evenodd"/></g></svg>