<svg id="Layer_1" data-name="Layer 1" xmlns="http://www.w3.org/2000/svg" viewBox="0 0 256 138"><defs><style>.cls-1{fill:#f0e364;}.cls-2,.cls-5{fill:#fff;}.cls-3{fill:#fcf8e4;}.cls-4{fill:#2f3f46;}.cls-5{opacity:0.75;}</style></defs><rect class="cls-1" x="61.66" y="-56.08" width="132.66" height="250.19" transform="translate(197 -58.98) rotate(90)"/><rect class="cls-2" x="13.1" y="12.21" width="229.78" height="113.6" transform="translate(255.98 138.02) rotate(180)"/><rect class="cls-3" x="13.1" y="12.21" width="229.78" height="29.64"/><polygon class="cls-4" points="61.1 27.03 57.2 19.62 53.31 12.21 53.31 12.21 13.1 12.21 13.1 41.84 53.31 41.84 53.31 41.84 57.2 34.44 61.1 27.03"/><rect class="cls-1" x="240.72" y="-0.52" width="14.76" height="15.8" transform="translate(255.48 -240.72) rotate(90)"/><ellipse class="cls-5" cx="248.1" cy="7.38" rx="3.68" ry="3.44"/><rect class="cls-1" x="240.72" y="122.72" width="14.76" height="15.8" transform="translate(378.72 -117.48) rotate(90)"/><ellipse class="cls-5" cx="248.1" cy="130.62" rx="3.68" ry="3.44"/><rect class="cls-1" x="0.52" y="122.72" width="14.76" height="15.8" transform="translate(138.52 122.72) rotate(90)"/><ellipse class="cls-5" cx="7.9" cy="130.62" rx="3.68" ry="3.44"/><rect class="cls-1" x="0.52" y="-0.52" width="14.76" height="15.8" transform="translate(15.28 -0.52) rotate(90)"/><ellipse class="cls-5" cx="7.9" cy="7.38" rx="3.68" ry="3.44"/></svg>