<svg width="170" height="31" viewBox="0 0 170 31" fill="none" xmlns="http://www.w3.org/2000/svg">
<mask id="path-1-inside-1_800_2" fill="white">
<path fill-rule="evenodd" clip-rule="evenodd" d="M6 0C2.68629 0 0 2.68629 0 6V17C0 20.3137 2.68629 23 6 23H153.259L157 30.0435L160.741 23H164C167.314 23 170 20.3137 170 17V6C170 2.68629 167.314 0 164 0H6Z"/>
</mask>
<path fill-rule="evenodd" clip-rule="evenodd" d="M6 0C2.68629 0 0 2.68629 0 6V17C0 20.3137 2.68629 23 6 23H153.259L157 30.0435L160.741 23H164C167.314 23 170 20.3137 170 17V6C170 2.68629 167.314 0 164 0H6Z" fill="#E6F9FF"/>
<path d="M153.259 23L154.142 22.5309L153.86 22H153.259V23ZM157 30.0435L156.117 30.5126L157 32.1752L157.883 30.5126L157 30.0435ZM160.741 23V22H160.14L159.858 22.5309L160.741 23ZM1 6C1 3.23858 3.23858 1 6 1V-1C2.13401 -1 -1 2.13401 -1 6H1ZM1 17V6H-1V17H1ZM6 22C3.23858 22 1 19.7614 1 17H-1C-1 20.866 2.13401 24 6 24V22ZM153.259 22H6V24H153.259V22ZM157.883 29.5744L154.142 22.5309L152.376 23.4691L156.117 30.5126L157.883 29.5744ZM159.858 22.5309L156.117 29.5744L157.883 30.5126L161.624 23.4691L159.858 22.5309ZM164 22H160.741V24H164V22ZM169 17C169 19.7614 166.761 22 164 22V24C167.866 24 171 20.866 171 17H169ZM169 6V17H171V6H169ZM164 1C166.761 1 169 3.23858 169 6H171C171 2.13401 167.866 -1 164 -1V1ZM6 1H164V-1H6V1Z" fill="black" mask="url(#path-1-inside-1_800_2)"/>
</svg>
