<svg width="138" height="44" viewBox="0 0 138 44" fill="none" xmlns="http://www.w3.org/2000/svg">
<rect x="59.9165" y="32.0652" width="11.4583" height="11.4348" fill="#E9E36D" stroke="#293D45"/>
<rect x="126.042" y="32.0652" width="11.4583" height="11.4348" fill="#E9E36D" stroke="#293D45"/>
<rect x="59.9165" y="0.5" width="11.4583" height="11.4348" fill="#E9E36D" stroke="#293D45"/>
<rect x="126.042" y="0.5" width="11.4583" height="11.4348" fill="#E9E36D" stroke="#293D45"/>
<rect x="63.75" y="4.32611" width="69.9167" height="35.3478" fill="#E9E36D" stroke="#293D45"/>
<rect x="67.0835" y="7.65216" width="63.25" height="28.6957" fill="#F9F7DE"/>
<mask id="path-7-outside-1_848_16" maskUnits="userSpaceOnUse" x="73.25" y="11.8261" width="51" height="19" fill="black">
<rect fill="white" x="73.25" y="11.8261" width="51" height="19"/>
<path d="M83.4251 21.8046V28.8261H81.6185V21.7851C81.6185 20.5872 81.3743 19.7408 80.8861 19.246C80.4043 18.7512 79.5677 18.5038 78.3763 18.5038H73.8255V16.8437H78.4056C79.6035 16.8437 80.5703 17.013 81.306 17.3515C82.0417 17.6835 82.5788 18.2141 82.9173 18.9433C83.2559 19.666 83.4251 20.6197 83.4251 21.8046ZM75.8177 21.0429V28.8261H74.0208V21.0429H75.8177ZM86.4915 27.2441C87.7415 26.7818 88.8092 26.1959 89.6947 25.4863C90.5866 24.7831 91.2637 24.0149 91.7259 23.1816C92.1947 22.3482 92.429 21.5019 92.429 20.6425C92.429 19.2167 91.6673 18.5038 90.1439 18.5038H85.2904V12.5663H87.0872V16.8437H90.3294C92.9401 16.8437 94.2454 18.0058 94.2454 20.33C94.2454 21.5279 93.959 22.677 93.3861 23.7773C92.8131 24.8775 92.0059 25.8671 90.9642 26.746C89.7272 27.8007 88.2363 28.6406 86.4915 29.2656V27.2441ZM99.1185 16.8437V28.8261H97.3216V16.8437H99.1185ZM110.222 23.0058C110.222 26.886 108.386 28.8261 104.714 28.8261H101.599V27.166H104.753C105.997 27.166 106.915 26.8209 107.507 26.1308C108.1 25.4407 108.396 24.4055 108.396 23.0253V22.6445C108.396 21.2578 108.096 20.2226 107.497 19.539C106.905 18.8489 105.99 18.5038 104.753 18.5038H101.599V16.8437H104.714C108.386 16.8437 110.222 18.7838 110.222 22.664V23.0058ZM118.923 16.6484C120.499 16.6484 121.648 17.1301 122.37 18.0937C123.1 19.0507 123.464 20.5742 123.464 22.664V28.8261H117.585V27.166H121.648V22.8886C121.648 21.2936 121.443 20.1347 121.033 19.412C120.622 18.6894 119.926 18.3281 118.943 18.3281C118.064 18.3281 117.341 18.7252 116.775 19.5195C116.202 20.3268 115.678 21.7298 115.202 23.7285L113.982 28.8261H112.048L113.386 23.582C113.536 22.97 113.689 22.4166 113.845 21.9218C114.001 21.427 114.154 20.9876 114.304 20.6035L111.863 16.8437H113.982L115.202 18.8261C115.71 18.0579 116.254 17.5045 116.833 17.166C117.413 16.8209 118.109 16.6484 118.923 16.6484Z"/>
</mask>
<path d="M83.4251 21.8046V28.8261H81.6185V21.7851C81.6185 20.5872 81.3743 19.7408 80.8861 19.246C80.4043 18.7512 79.5677 18.5038 78.3763 18.5038H73.8255V16.8437H78.4056C79.6035 16.8437 80.5703 17.013 81.306 17.3515C82.0417 17.6835 82.5788 18.2141 82.9173 18.9433C83.2559 19.666 83.4251 20.6197 83.4251 21.8046ZM75.8177 21.0429V28.8261H74.0208V21.0429H75.8177ZM86.4915 27.2441C87.7415 26.7818 88.8092 26.1959 89.6947 25.4863C90.5866 24.7831 91.2637 24.0149 91.7259 23.1816C92.1947 22.3482 92.429 21.5019 92.429 20.6425C92.429 19.2167 91.6673 18.5038 90.1439 18.5038H85.2904V12.5663H87.0872V16.8437H90.3294C92.9401 16.8437 94.2454 18.0058 94.2454 20.33C94.2454 21.5279 93.959 22.677 93.3861 23.7773C92.8131 24.8775 92.0059 25.8671 90.9642 26.746C89.7272 27.8007 88.2363 28.6406 86.4915 29.2656V27.2441ZM99.1185 16.8437V28.8261H97.3216V16.8437H99.1185ZM110.222 23.0058C110.222 26.886 108.386 28.8261 104.714 28.8261H101.599V27.166H104.753C105.997 27.166 106.915 26.8209 107.507 26.1308C108.1 25.4407 108.396 24.4055 108.396 23.0253V22.6445C108.396 21.2578 108.096 20.2226 107.497 19.539C106.905 18.8489 105.99 18.5038 104.753 18.5038H101.599V16.8437H104.714C108.386 16.8437 110.222 18.7838 110.222 22.664V23.0058ZM118.923 16.6484C120.499 16.6484 121.648 17.1301 122.37 18.0937C123.1 19.0507 123.464 20.5742 123.464 22.664V28.8261H117.585V27.166H121.648V22.8886C121.648 21.2936 121.443 20.1347 121.033 19.412C120.622 18.6894 119.926 18.3281 118.943 18.3281C118.064 18.3281 117.341 18.7252 116.775 19.5195C116.202 20.3268 115.678 21.7298 115.202 23.7285L113.982 28.8261H112.048L113.386 23.582C113.536 22.97 113.689 22.4166 113.845 21.9218C114.001 21.427 114.154 20.9876 114.304 20.6035L111.863 16.8437H113.982L115.202 18.8261C115.71 18.0579 116.254 17.5045 116.833 17.166C117.413 16.8209 118.109 16.6484 118.923 16.6484Z" fill="#233E46"/>
<path d="M83.4251 28.8261V29.3261H83.9251V28.8261H83.4251ZM81.6185 28.8261H81.1185V29.3261H81.6185V28.8261ZM80.8861 19.246L80.5278 19.5948L80.5302 19.5972L80.8861 19.246ZM73.8255 18.5038H73.3255V19.0038H73.8255V18.5038ZM73.8255 16.8437V16.3437H73.3255V16.8437H73.8255ZM81.306 17.3515L81.097 17.8057L81.1003 17.8072L81.306 17.3515ZM82.9173 18.9433L82.4638 19.1539L82.4645 19.1554L82.9173 18.9433ZM75.8177 21.0429H76.3177V20.5429H75.8177V21.0429ZM75.8177 28.8261V29.3261H76.3177V28.8261H75.8177ZM74.0208 28.8261H73.5208V29.3261H74.0208V28.8261ZM74.0208 21.0429V20.5429H73.5208V21.0429H74.0208ZM82.9251 21.8046V28.8261H83.9251V21.8046H82.9251ZM83.4251 28.3261H81.6185V29.3261H83.4251V28.3261ZM82.1185 28.8261V21.7851H81.1185V28.8261H82.1185ZM82.1185 21.7851C82.1185 20.5441 81.8702 19.5314 81.242 18.8948L80.5302 19.5972C80.8785 19.9502 81.1185 20.6302 81.1185 21.7851H82.1185ZM81.2443 18.8972C80.6195 18.2556 79.6112 18.0038 78.3763 18.0038V19.0038C79.5243 19.0038 80.189 19.2469 80.5278 19.5948L81.2443 18.8972ZM78.3763 18.0038H73.8255V19.0038H78.3763V18.0038ZM74.3255 18.5038V16.8437H73.3255V18.5038H74.3255ZM73.8255 17.3437H78.4056V16.3437H73.8255V17.3437ZM78.4056 17.3437C79.563 17.3437 80.4505 17.5082 81.097 17.8057L81.515 16.8973C80.6901 16.5177 79.644 16.3437 78.4056 16.3437V17.3437ZM81.1003 17.8072C81.7271 18.0901 82.176 18.534 82.4638 19.1539L83.3708 18.7327C82.9815 17.8943 82.3562 17.2769 81.5117 16.8958L81.1003 17.8072ZM82.4645 19.1554C82.7606 19.7875 82.9251 20.6605 82.9251 21.8046H83.9251C83.9251 20.5789 83.7511 19.5445 83.3701 18.7312L82.4645 19.1554ZM75.3177 21.0429V28.8261H76.3177V21.0429H75.3177ZM75.8177 28.3261H74.0208V29.3261H75.8177V28.3261ZM74.5208 28.8261V21.0429H73.5208V28.8261H74.5208ZM74.0208 21.5429H75.8177V20.5429H74.0208V21.5429ZM86.4915 27.2441L86.3181 26.7751L85.9915 26.8959V27.2441H86.4915ZM89.6947 25.4863L89.3851 25.0936L89.382 25.0961L89.6947 25.4863ZM91.7259 23.1816L91.2901 22.9364L91.2887 22.939L91.7259 23.1816ZM85.2904 18.5038H84.7904V19.0038H85.2904V18.5038ZM85.2904 12.5663V12.0663H84.7904V12.5663H85.2904ZM87.0872 12.5663H87.5872V12.0663H87.0872V12.5663ZM87.0872 16.8437H86.5872V17.3437H87.0872V16.8437ZM93.3861 23.7773L92.9426 23.5464L93.3861 23.7773ZM90.9642 26.746L90.6418 26.3639L90.6398 26.3656L90.9642 26.746ZM86.4915 29.2656H85.9915V29.9758L86.6601 29.7363L86.4915 29.2656ZM86.665 27.713C87.9567 27.2354 89.0735 26.6249 90.0074 25.8764L89.382 25.0961C88.545 25.7669 87.5263 26.3283 86.3181 26.7751L86.665 27.713ZM90.0042 25.8789C90.9384 25.1425 91.6632 24.3255 92.1631 23.4241L91.2887 22.939C90.8642 23.7044 90.2347 24.4238 89.3851 25.0936L90.0042 25.8789ZM92.1617 23.4267C92.6677 22.5271 92.929 21.5971 92.929 20.6425H91.929C91.929 21.4067 91.7216 22.1693 91.2901 22.9364L92.1617 23.4267ZM92.929 20.6425C92.929 19.8438 92.7141 19.1552 92.1994 18.6735C91.6909 18.1976 90.9747 18.0038 90.1439 18.0038V19.0038C90.8365 19.0038 91.2628 19.1665 91.5161 19.4036C91.7631 19.6348 91.929 20.0155 91.929 20.6425H92.929ZM90.1439 18.0038H85.2904V19.0038H90.1439V18.0038ZM85.7904 18.5038V12.5663H84.7904V18.5038H85.7904ZM85.2904 13.0663H87.0872V12.0663H85.2904V13.0663ZM86.5872 12.5663V16.8437H87.5872V12.5663H86.5872ZM87.0872 17.3437H90.3294V16.3437H87.0872V17.3437ZM90.3294 17.3437C91.5711 17.3437 92.4089 17.6213 92.934 18.0887C93.4479 18.5463 93.7454 19.261 93.7454 20.33H94.7454C94.7454 19.0748 94.3903 18.0464 93.5989 17.3418C92.8186 16.6471 91.6984 16.3437 90.3294 16.3437V17.3437ZM93.7454 20.33C93.7454 21.4446 93.4797 22.5148 92.9426 23.5464L93.8295 24.0082C94.4382 22.8393 94.7454 21.6112 94.7454 20.33H93.7454ZM92.9426 23.5464C92.4026 24.5833 91.6385 25.5229 90.6418 26.3639L91.2866 27.1282C92.3732 26.2114 93.2237 25.1717 93.8295 24.0082L92.9426 23.5464ZM90.6398 26.3656C89.4548 27.3759 88.0186 28.1874 86.3229 28.7949L86.6601 29.7363C88.454 29.0937 89.9996 28.2255 91.2886 27.1265L90.6398 26.3656ZM86.9915 29.2656V27.2441H85.9915V29.2656H86.9915ZM99.1185 16.8437H99.6185V16.3437H99.1185V16.8437ZM99.1185 28.8261V29.3261H99.6185V28.8261H99.1185ZM97.3216 28.8261H96.8216V29.3261H97.3216V28.8261ZM97.3216 16.8437V16.3437H96.8216V16.8437H97.3216ZM98.6185 16.8437V28.8261H99.6185V16.8437H98.6185ZM99.1185 28.3261H97.3216V29.3261H99.1185V28.3261ZM97.8216 28.8261V16.8437H96.8216V28.8261H97.8216ZM97.3216 17.3437H99.1185V16.3437H97.3216V17.3437ZM101.599 28.8261H101.099V29.3261H101.599V28.8261ZM101.599 27.166V26.666H101.099V27.166H101.599ZM107.497 19.539L107.118 19.8647L107.121 19.8685L107.497 19.539ZM101.599 18.5038H101.099V19.0038H101.599V18.5038ZM101.599 16.8437V16.3437H101.099V16.8437H101.599ZM109.722 23.0058C109.722 24.8755 109.279 26.1848 108.482 27.0274C107.689 27.8647 106.466 28.3261 104.714 28.3261V29.3261C106.634 29.3261 108.165 28.8175 109.208 27.7147C110.247 26.6171 110.722 25.0163 110.722 23.0058H109.722ZM104.714 28.3261H101.599V29.3261H104.714V28.3261ZM102.099 28.8261V27.166H101.099V28.8261H102.099ZM101.599 27.666H104.753V26.666H101.599V27.666ZM104.753 27.666C106.086 27.666 107.168 27.2937 107.887 26.4565L107.128 25.8051C106.662 26.3481 105.907 26.666 104.753 26.666V27.666ZM107.887 26.4565C108.588 25.639 108.896 24.4655 108.896 23.0253H107.896C107.896 24.3456 107.611 25.2424 107.128 25.8051L107.887 26.4565ZM108.896 23.0253V22.6445H107.896V23.0253H108.896ZM108.896 22.6445C108.896 21.1979 108.585 20.0217 107.873 19.2095L107.121 19.8685C107.608 20.4235 107.896 21.3176 107.896 22.6445H108.896ZM107.877 19.2133C107.158 18.3766 106.081 18.0038 104.753 18.0038V19.0038C105.9 19.0038 106.651 19.3212 107.118 19.8647L107.877 19.2133ZM104.753 18.0038H101.599V19.0038H104.753V18.0038ZM102.099 18.5038V16.8437H101.099V18.5038H102.099ZM101.599 17.3437H104.714V16.3437H101.599V17.3437ZM104.714 17.3437C106.466 17.3437 107.689 17.8051 108.482 18.6424C109.279 19.485 109.722 20.7943 109.722 22.664H110.722C110.722 20.6535 110.247 19.0527 109.208 17.9551C108.165 16.8523 106.634 16.3437 104.714 16.3437V17.3437ZM109.722 22.664V23.0058H110.722V22.664H109.722ZM122.37 18.0937L121.97 18.3937L121.973 18.3967L122.37 18.0937ZM123.464 28.8261V29.3261H123.964V28.8261H123.464ZM117.585 28.8261H117.085V29.3261H117.585V28.8261ZM117.585 27.166V26.666H117.085V27.166H117.585ZM121.648 27.166V27.666H122.148V27.166H121.648ZM116.775 19.5195L116.368 19.2292L116.367 19.2301L116.775 19.5195ZM115.202 23.7285L115.689 23.8449L115.689 23.8441L115.202 23.7285ZM113.982 28.8261V29.3261H114.376L114.468 28.9426L113.982 28.8261ZM112.048 28.8261L111.564 28.7025L111.405 29.3261H112.048V28.8261ZM113.386 23.582L113.871 23.7056L113.872 23.7008L113.386 23.582ZM114.304 20.6035L114.77 20.7851L114.863 20.5462L114.723 20.3312L114.304 20.6035ZM111.863 16.8437V16.3437H110.942L111.443 17.116L111.863 16.8437ZM113.982 16.8437L114.408 16.5815L114.261 16.3437H113.982V16.8437ZM115.202 18.8261L114.777 19.0883L115.188 19.7554L115.62 19.1018L115.202 18.8261ZM116.833 17.166L117.086 17.5977L117.089 17.5956L116.833 17.166ZM118.923 17.1484C120.394 17.1484 121.37 17.5931 121.97 18.3937L122.77 17.7937C121.926 16.6672 120.603 16.1484 118.923 16.1484V17.1484ZM121.973 18.3967C122.602 19.2228 122.964 20.6114 122.964 22.664H123.964C123.964 20.5369 123.597 18.8786 122.768 17.7907L121.973 18.3967ZM122.964 22.664V28.8261H123.964V22.664H122.964ZM123.464 28.3261H117.585V29.3261H123.464V28.3261ZM118.085 28.8261V27.166H117.085V28.8261H118.085ZM117.585 27.666H121.648V26.666H117.585V27.666ZM122.148 27.166V22.8886H121.148V27.166H122.148ZM122.148 22.8886C122.148 21.2732 121.944 20.005 121.467 19.1652L120.598 19.6589C120.941 20.2644 121.148 21.314 121.148 22.8886H122.148ZM121.467 19.1652C120.951 18.2547 120.067 17.8281 118.943 17.8281V18.8281C119.785 18.8281 120.294 19.124 120.598 19.6589L121.467 19.1652ZM118.943 17.8281C117.883 17.8281 117.016 18.3201 116.368 19.2292L117.182 19.8098C117.666 19.1303 118.245 18.8281 118.943 18.8281V17.8281ZM116.367 19.2301C115.735 20.1207 115.194 21.6043 114.716 23.6128L115.689 23.8441C116.162 21.8552 116.669 20.5328 117.182 19.8088L116.367 19.2301ZM114.716 23.612L113.496 28.7097L114.468 28.9426L115.689 23.8449L114.716 23.612ZM113.982 28.3261H112.048V29.3261H113.982V28.3261ZM112.533 28.9497L113.871 23.7056L112.902 23.4584L111.564 28.7025L112.533 28.9497ZM113.872 23.7008C114.019 23.0973 114.17 22.5548 114.322 22.0724L113.368 21.7712C113.208 22.2784 113.052 22.8427 112.9 23.4631L113.872 23.7008ZM114.322 22.0724C114.476 21.5855 114.625 21.1567 114.77 20.7851L113.838 20.4219C113.684 20.8184 113.527 21.2685 113.368 21.7712L114.322 22.0724ZM114.723 20.3312L112.282 16.5714L111.443 17.116L113.885 20.8758L114.723 20.3312ZM111.863 17.3437H113.982V16.3437H111.863V17.3437ZM113.556 17.1059L114.777 19.0883L115.628 18.5639L114.408 16.5815L113.556 17.1059ZM115.62 19.1018C116.1 18.375 116.592 17.8859 117.086 17.5977L116.581 16.7342C115.916 17.1231 115.321 17.7407 114.785 18.5504L115.62 19.1018ZM117.089 17.5956C117.577 17.3053 118.181 17.1484 118.923 17.1484V16.1484C118.038 16.1484 117.249 16.3365 116.578 16.7364L117.089 17.5956Z" fill="#233E46" mask="url(#path-7-outside-1_848_16)"/>
<mask id="path-9-outside-2_848_16" maskUnits="userSpaceOnUse" x="7" y="16" width="54" height="14" fill="black">
<rect fill="white" x="7" y="16" width="54" height="14"/>
<path d="M11.873 27.1445C11.6517 27.8021 11.3001 28.2773 10.8184 28.5703C10.3366 28.8568 9.57812 29 8.54297 29H8.43555V27.3398H8.60156C9.05078 27.3398 9.40885 27.2552 9.67578 27.0859C9.9362 26.9167 10.1217 26.6595 10.2324 26.3145C10.3431 25.9629 10.3984 25.4323 10.3984 24.7227V18.6777H8.54297V17.0176H15.0176C16.8145 17.0176 18.1035 17.4017 18.8848 18.1699C19.666 18.9316 20.0566 20.2012 20.0566 21.9785V29H18.2598V21.959C18.2598 20.7611 18.0156 19.9147 17.5273 19.4199C17.0456 18.9251 16.2025 18.6777 14.998 18.6777H12.1953V24.3613C12.1953 25.5592 12.0879 26.487 11.873 27.1445ZM30.1445 21.9785V29H28.3379V21.959C28.3379 20.7741 28.097 19.931 27.6152 19.4297C27.14 18.9284 26.3034 18.6777 25.1055 18.6777H21.4434V17.0176H25.125C26.3229 17.0176 27.2897 17.1868 28.0254 17.5254C28.7611 17.8574 29.2982 18.388 29.6367 19.1172C29.9753 19.8398 30.1445 20.7936 30.1445 21.9785ZM43.6113 27.3398V29H33.1523V27.3398H40.5156V21.959C40.5156 20.7611 40.2715 19.9147 39.7832 19.4199C39.3014 18.9251 38.4648 18.6777 37.2734 18.6777H33.6113V17.0176H37.293C39.0898 17.0176 40.3757 17.4017 41.1504 18.1699C41.9251 18.9382 42.3125 20.2077 42.3125 21.9785V27.3398H43.6113ZM47.8203 17.0176V29H46.0234V17.0176H47.8203ZM49.9199 27.418C51.7233 27.418 53.1361 27.252 54.1582 26.9199L50.5352 17.0176H52.5176L55.7207 26.1582C56.3327 25.722 56.8242 25.1393 57.1953 24.4102C57.5729 23.6745 57.8464 22.7109 58.0156 21.5195C58.1914 20.3281 58.2793 18.8275 58.2793 17.0176H60.1641C60.1641 20.0254 59.8451 22.3822 59.207 24.0879C58.7773 25.2207 58.1751 26.1582 57.4004 26.9004C56.6257 27.6361 55.6263 28.2025 54.4023 28.5996C53.1849 28.9902 51.6908 29.2311 49.9199 29.3223V27.418Z"/>
</mask>
<path d="M11.873 27.1445C11.6517 27.8021 11.3001 28.2773 10.8184 28.5703C10.3366 28.8568 9.57812 29 8.54297 29H8.43555V27.3398H8.60156C9.05078 27.3398 9.40885 27.2552 9.67578 27.0859C9.9362 26.9167 10.1217 26.6595 10.2324 26.3145C10.3431 25.9629 10.3984 25.4323 10.3984 24.7227V18.6777H8.54297V17.0176H15.0176C16.8145 17.0176 18.1035 17.4017 18.8848 18.1699C19.666 18.9316 20.0566 20.2012 20.0566 21.9785V29H18.2598V21.959C18.2598 20.7611 18.0156 19.9147 17.5273 19.4199C17.0456 18.9251 16.2025 18.6777 14.998 18.6777H12.1953V24.3613C12.1953 25.5592 12.0879 26.487 11.873 27.1445ZM30.1445 21.9785V29H28.3379V21.959C28.3379 20.7741 28.097 19.931 27.6152 19.4297C27.14 18.9284 26.3034 18.6777 25.1055 18.6777H21.4434V17.0176H25.125C26.3229 17.0176 27.2897 17.1868 28.0254 17.5254C28.7611 17.8574 29.2982 18.388 29.6367 19.1172C29.9753 19.8398 30.1445 20.7936 30.1445 21.9785ZM43.6113 27.3398V29H33.1523V27.3398H40.5156V21.959C40.5156 20.7611 40.2715 19.9147 39.7832 19.4199C39.3014 18.9251 38.4648 18.6777 37.2734 18.6777H33.6113V17.0176H37.293C39.0898 17.0176 40.3757 17.4017 41.1504 18.1699C41.9251 18.9382 42.3125 20.2077 42.3125 21.9785V27.3398H43.6113ZM47.8203 17.0176V29H46.0234V17.0176H47.8203ZM49.9199 27.418C51.7233 27.418 53.1361 27.252 54.1582 26.9199L50.5352 17.0176H52.5176L55.7207 26.1582C56.3327 25.722 56.8242 25.1393 57.1953 24.4102C57.5729 23.6745 57.8464 22.7109 58.0156 21.5195C58.1914 20.3281 58.2793 18.8275 58.2793 17.0176H60.1641C60.1641 20.0254 59.8451 22.3822 59.207 24.0879C58.7773 25.2207 58.1751 26.1582 57.4004 26.9004C56.6257 27.6361 55.6263 28.2025 54.4023 28.5996C53.1849 28.9902 51.6908 29.2311 49.9199 29.3223V27.418Z" fill="#233E46"/>
<path d="M11.873 27.1445L12.3469 27.3041L12.3483 27.2998L11.873 27.1445ZM10.8184 28.5703L11.0739 29.0001L11.0781 28.9975L10.8184 28.5703ZM8.43555 29H7.93555V29.5H8.43555V29ZM8.43555 27.3398V26.8398H7.93555V27.3398H8.43555ZM9.67578 27.0859L9.94357 27.5082L9.94828 27.5052L9.67578 27.0859ZM10.2324 26.3145L10.7085 26.4672L10.7093 26.4646L10.2324 26.3145ZM10.3984 18.6777H10.8984V18.1777H10.3984V18.6777ZM8.54297 18.6777H8.04297V19.1777H8.54297V18.6777ZM8.54297 17.0176V16.5176H8.04297V17.0176H8.54297ZM18.8848 18.1699L18.5342 18.5264L18.5357 18.5279L18.8848 18.1699ZM20.0566 29V29.5H20.5566V29H20.0566ZM18.2598 29H17.7598V29.5H18.2598V29ZM17.5273 19.4199L17.1691 19.7687L17.1715 19.7711L17.5273 19.4199ZM12.1953 18.6777V18.1777H11.6953V18.6777H12.1953ZM11.3992 26.985C11.2064 27.5575 10.918 27.9245 10.5586 28.1431L11.0781 28.9975C11.6823 28.6302 12.0969 28.0466 12.3469 27.3041L11.3992 26.985ZM10.5628 28.1405C10.1996 28.3565 9.55288 28.5 8.54297 28.5V29.5C9.60337 29.5 10.4736 29.357 11.0739 29.0001L10.5628 28.1405ZM8.54297 28.5H8.43555V29.5H8.54297V28.5ZM8.93555 29V27.3398H7.93555V29H8.93555ZM8.43555 27.8398H8.60156V26.8398H8.43555V27.8398ZM8.60156 27.8398C9.10754 27.8398 9.56954 27.7454 9.94355 27.5082L9.40801 26.6637C9.24817 26.765 8.99402 26.8398 8.60156 26.8398V27.8398ZM9.94828 27.5052C10.3208 27.263 10.5688 26.9027 10.7085 26.4672L9.75631 26.1617C9.67466 26.4163 9.55155 26.5703 9.40329 26.6667L9.94828 27.5052ZM10.7093 26.4646C10.8436 26.0382 10.8984 25.4453 10.8984 24.7227H9.89844C9.89844 25.4193 9.8426 25.8876 9.7555 26.1643L10.7093 26.4646ZM10.8984 24.7227V18.6777H9.89844V24.7227H10.8984ZM10.3984 18.1777H8.54297V19.1777H10.3984V18.1777ZM9.04297 18.6777V17.0176H8.04297V18.6777H9.04297ZM8.54297 17.5176H15.0176V16.5176H8.54297V17.5176ZM15.0176 17.5176C16.763 17.5176 17.891 17.894 18.5342 18.5264L19.2353 17.8134C18.316 16.9094 16.8659 16.5176 15.0176 16.5176V17.5176ZM18.5357 18.5279C19.1747 19.1509 19.5566 20.2547 19.5566 21.9785H20.5566C20.5566 20.1476 20.1574 18.7124 19.2338 17.8119L18.5357 18.5279ZM19.5566 21.9785V29H20.5566V21.9785H19.5566ZM20.0566 28.5H18.2598V29.5H20.0566V28.5ZM18.7598 29V21.959H17.7598V29H18.7598ZM18.7598 21.959C18.7598 20.718 18.5114 19.7053 17.8832 19.0687L17.1715 19.7711C17.5198 20.1241 17.7598 20.8041 17.7598 21.959H18.7598ZM17.8856 19.0711C17.26 18.4287 16.244 18.1777 14.998 18.1777V19.1777C16.1609 19.1777 16.8311 19.4216 17.1691 19.7687L17.8856 19.0711ZM14.998 18.1777H12.1953V19.1777H14.998V18.1777ZM11.6953 18.6777V24.3613H12.6953V18.6777H11.6953ZM11.6953 24.3613C11.6953 25.5391 11.5885 26.4055 11.3978 26.9892L12.3483 27.2998C12.5873 26.5685 12.6953 25.5794 12.6953 24.3613H11.6953ZM30.1445 29V29.5H30.6445V29H30.1445ZM28.3379 29H27.8379V29.5H28.3379V29ZM27.6152 19.4297L27.2524 19.7737L27.2547 19.7761L27.6152 19.4297ZM21.4434 18.6777H20.9434V19.1777H21.4434V18.6777ZM21.4434 17.0176V16.5176H20.9434V17.0176H21.4434ZM28.0254 17.5254L27.8164 17.9796L27.8197 17.9811L28.0254 17.5254ZM29.6367 19.1172L29.1832 19.3277L29.1839 19.3293L29.6367 19.1172ZM29.6445 21.9785V29H30.6445V21.9785H29.6445ZM30.1445 28.5H28.3379V29.5H30.1445V28.5ZM28.8379 29V21.959H27.8379V29H28.8379ZM28.8379 21.959C28.8379 20.7296 28.5922 19.7247 27.9757 19.0832L27.2547 19.7761C27.6018 20.1373 27.8379 20.8186 27.8379 21.959H28.8379ZM27.9781 19.0857C27.3588 18.4325 26.3463 18.1777 25.1055 18.1777V19.1777C26.2605 19.1777 26.9211 19.4243 27.2524 19.7737L27.9781 19.0857ZM25.1055 18.1777H21.4434V19.1777H25.1055V18.1777ZM21.9434 18.6777V17.0176H20.9434V18.6777H21.9434ZM21.4434 17.5176H25.125V16.5176H21.4434V17.5176ZM25.125 17.5176C26.2824 17.5176 27.1699 17.6821 27.8164 17.9796L28.2344 17.0712C27.4095 16.6916 26.3634 16.5176 25.125 16.5176V17.5176ZM27.8197 17.9811C28.4465 18.264 28.8954 18.7079 29.1832 19.3277L30.0902 18.9066C29.7009 18.0682 29.0756 17.4508 28.2311 17.0697L27.8197 17.9811ZM29.1839 19.3293C29.48 19.9613 29.6445 20.8344 29.6445 21.9785H30.6445C30.6445 20.7528 30.4705 19.7183 30.0895 18.9051L29.1839 19.3293ZM43.6113 27.3398H44.1113V26.8398H43.6113V27.3398ZM43.6113 29V29.5H44.1113V29H43.6113ZM33.1523 29H32.6523V29.5H33.1523V29ZM33.1523 27.3398V26.8398H32.6523V27.3398H33.1523ZM40.5156 27.3398V27.8398H41.0156V27.3398H40.5156ZM39.7832 19.4199L39.425 19.7687L39.4273 19.7711L39.7832 19.4199ZM33.6113 18.6777H33.1113V19.1777H33.6113V18.6777ZM33.6113 17.0176V16.5176H33.1113V17.0176H33.6113ZM42.3125 27.3398H41.8125V27.8398H42.3125V27.3398ZM43.1113 27.3398V29H44.1113V27.3398H43.1113ZM43.6113 28.5H33.1523V29.5H43.6113V28.5ZM33.6523 29V27.3398H32.6523V29H33.6523ZM33.1523 27.8398H40.5156V26.8398H33.1523V27.8398ZM41.0156 27.3398V21.959H40.0156V27.3398H41.0156ZM41.0156 21.959C41.0156 20.718 40.7673 19.7053 40.1391 19.0687L39.4273 19.7711C39.7757 20.1241 40.0156 20.8041 40.0156 21.959H41.0156ZM40.1414 19.0711C39.5167 18.4295 38.5083 18.1777 37.2734 18.1777V19.1777C38.4214 19.1777 39.0862 19.4208 39.425 19.7687L40.1414 19.0711ZM37.2734 18.1777H33.6113V19.1777H37.2734V18.1777ZM34.1113 18.6777V17.0176H33.1113V18.6777H34.1113ZM33.6113 17.5176H37.293V16.5176H33.6113V17.5176ZM37.293 17.5176C39.039 17.5176 40.1622 17.8942 40.7983 18.525L41.5024 17.8149C40.5891 16.9092 39.1407 16.5176 37.293 16.5176V17.5176ZM40.7983 18.525C41.4339 19.1552 41.8125 20.2615 41.8125 21.9785H42.8125C42.8125 20.1539 42.4164 18.7211 41.5024 17.8149L40.7983 18.525ZM41.8125 21.9785V27.3398H42.8125V21.9785H41.8125ZM42.3125 27.8398H43.6113V26.8398H42.3125V27.8398ZM47.8203 17.0176H48.3203V16.5176H47.8203V17.0176ZM47.8203 29V29.5H48.3203V29H47.8203ZM46.0234 29H45.5234V29.5H46.0234V29ZM46.0234 17.0176V16.5176H45.5234V17.0176H46.0234ZM47.3203 17.0176V29H48.3203V17.0176H47.3203ZM47.8203 28.5H46.0234V29.5H47.8203V28.5ZM46.5234 29V17.0176H45.5234V29H46.5234ZM46.0234 17.5176H47.8203V16.5176H46.0234V17.5176ZM49.9199 27.418V26.918H49.4199V27.418H49.9199ZM54.1582 26.9199L54.3127 27.3955L54.806 27.2352L54.6278 26.7481L54.1582 26.9199ZM50.5352 17.0176V16.5176H49.8198L50.0656 17.1894L50.5352 17.0176ZM52.5176 17.0176L52.9894 16.8522L52.8722 16.5176H52.5176V17.0176ZM55.7207 26.1582L55.2488 26.3236L55.4689 26.9517L56.0109 26.5654L55.7207 26.1582ZM57.1953 24.4102L56.7505 24.1818L56.7497 24.1834L57.1953 24.4102ZM58.0156 21.5195L57.521 21.4465L57.5206 21.4492L58.0156 21.5195ZM58.2793 17.0176V16.5176H57.7793V17.0176H58.2793ZM60.1641 17.0176H60.6641V16.5176H60.1641V17.0176ZM59.207 24.0879L59.6745 24.2652L59.6753 24.2631L59.207 24.0879ZM57.4004 26.9004L57.7447 27.263L57.7463 27.2614L57.4004 26.9004ZM54.4023 28.5996L54.5551 29.0757L54.5567 29.0752L54.4023 28.5996ZM49.9199 29.3223H49.4199V29.8487L49.9456 29.8216L49.9199 29.3223ZM49.9199 27.918C51.7453 27.918 53.2182 27.751 54.3127 27.3955L54.0037 26.4444C53.0539 26.7529 51.7013 26.918 49.9199 26.918V27.918ZM54.6278 26.7481L51.0047 16.8458L50.0656 17.1894L53.6886 27.0917L54.6278 26.7481ZM50.5352 17.5176H52.5176V16.5176H50.5352V17.5176ZM52.0457 17.1829L55.2488 26.3236L56.1926 25.9928L52.9894 16.8522L52.0457 17.1829ZM56.0109 26.5654C56.6942 26.0784 57.2366 25.4314 57.6409 24.6369L56.7497 24.1834C56.4118 24.8473 55.9712 25.3656 55.4305 25.751L56.0109 26.5654ZM57.6401 24.6385C58.0519 23.8363 58.3368 22.8136 58.5107 21.5899L57.5206 21.4492C57.3559 22.6083 57.094 23.5127 56.7505 24.1818L57.6401 24.6385ZM58.5103 21.5925C58.6909 20.3682 58.7793 18.8411 58.7793 17.0176H57.7793C57.7793 18.8139 57.6919 20.2881 57.521 21.4466L58.5103 21.5925ZM58.2793 17.5176H60.1641V16.5176H58.2793V17.5176ZM59.6641 17.0176C59.6641 19.9994 59.3465 22.2877 58.7387 23.9127L59.6753 24.2631C60.3436 22.4766 60.6641 20.0514 60.6641 17.0176H59.6641ZM58.7395 23.9106C58.3328 24.9829 57.769 25.8549 57.0545 26.5393L57.7463 27.2614C58.5813 26.4615 59.2219 25.4585 59.6745 24.2652L58.7395 23.9106ZM57.0561 26.5378C56.3454 27.2127 55.4153 27.7453 54.248 28.124L54.5567 29.0752C55.8373 28.6597 56.9059 28.0595 57.7447 27.263L57.0561 26.5378ZM54.2496 28.1235C53.0857 28.4969 51.6372 28.7332 49.8942 28.8229L49.9456 29.8216C51.7443 29.729 53.2841 29.4835 54.5551 29.0757L54.2496 28.1235ZM50.4199 29.3223V27.418H49.4199V29.3223H50.4199Z" fill="#233E46" mask="url(#path-9-outside-2_848_16)"/>
</svg>
