<svg width="442" height="38" viewBox="0 0 442 38" fill="none" xmlns="http://www.w3.org/2000/svg">
<mask id="path-1-inside-1_375_867" fill="white">
<path fill-rule="evenodd" clip-rule="evenodd" d="M15 0C11.6863 0 9 2.68629 9 6L9 13.8038L0 19L9 24.1962V32C9 35.3137 11.6863 38 15 38H436C439.314 38 442 35.3137 442 32V6C442 2.68629 439.314 0 436 0H15Z"/>
</mask>
<path fill-rule="evenodd" clip-rule="evenodd" d="M15 0C11.6863 0 9 2.68629 9 6L9 13.8038L0 19L9 24.1962V32C9 35.3137 11.6863 38 15 38H436C439.314 38 442 35.3137 442 32V6C442 2.68629 439.314 0 436 0H15Z" fill="#E6F9FF"/>
<path d="M9 6H10H9ZM9 13.8038L9.5 14.6699L10 14.3812V13.8038H9ZM0 19L-0.5 18.134L-2 19L-0.5 19.866L0 19ZM9 24.1962H10V23.6188L9.5 23.3301L9 24.1962ZM10 6C10 3.23858 12.2386 1 15 1V-1C11.134 -1 8 2.13401 8 6H10ZM10 13.8038L10 6H8L8 13.8038H10ZM0.5 19.866L9.5 14.6699L8.5 12.9378L-0.5 18.134L0.5 19.866ZM9.5 23.3301L0.5 18.134L-0.5 19.866L8.5 25.0622L9.5 23.3301ZM10 32V24.1962H8V32H10ZM15 37C12.2386 37 10 34.7614 10 32H8C8 35.866 11.134 39 15 39V37ZM436 37H15V39H436V37ZM441 32C441 34.7614 438.761 37 436 37V39C439.866 39 443 35.866 443 32H441ZM441 6V32H443V6H441ZM436 1C438.761 1 441 3.23858 441 6H443C443 2.134 439.866 -1 436 -1V1ZM15 1H436V-1H15V1Z" fill="black" mask="url(#path-1-inside-1_375_867)"/>
</svg>
