<svg width="28" height="21" viewBox="0 0 28 21" fill="none" xmlns="http://www.w3.org/2000/svg">
<path d="M14.8889 16H1.83333C1.3731 16 1 15.7762 1 15.5V1.5C1 1.22386 1.3731 1 1.83333 1H25.1667C25.6269 1 26 1.22386 26 1.5V9.33333" stroke="#233E46" stroke-linecap="round" stroke-linejoin="round"/>
<path d="M3 13L13.08 8L21 12.1667" stroke="#233E46" stroke-linecap="round" stroke-linejoin="round"/>
<path d="M21.0817 8.00002C19.943 8.00002 19.02 7.10459 19.02 6.00001C19.02 4.89544 19.943 4 21.0817 4C22.2203 4 23.1433 4.89544 23.1433 6.00001C23.1433 7.10459 22.2203 8.00002 21.0817 8.00002Z" stroke="#233E46" stroke-linecap="round" stroke-linejoin="round"/>
<path d="M21.0815 17H24.174M24.174 17H27.2664M24.174 17V14M24.174 17V20" stroke="#233E46" stroke-linecap="round" stroke-linejoin="round"/>
</svg>
