<svg width="4135" height="2262" xmlns="http://www.w3.org/2000/svg" xmlns:xlink="http://www.w3.org/1999/xlink" xml:space="preserve" overflow="hidden"><defs><clipPath id="clip0"><rect x="44" y="493" width="4135" height="2262"/></clipPath></defs><g clip-path="url(#clip0)" transform="translate(-44 -493)"><path d="M44 493 4179 493 4179 2755 44 2755Z" fill="#21BEF0" fill-rule="evenodd"/><path d="M4179 2754.66 4179 1494C4139.43 1545.58 4117.41 1608.86 4073.72 1659.75 3963.27 1787.33 3798.46 1877.08 3743.07 2036.64 3707.63 2139.46 3725.52 2252.94 3706.6 2360.23 3691.46 2446.2 3651.55 2527.7 3593.05 2592.69 3548.67 2641.86 3494.31 2681.41 3450.61 2730.93 3443.73 2738.49 3437.19 2746.4 3431 2755L4179 2755Z" fill="#5BC9E5" fill-rule="evenodd"/><path d="M1386.99 648.511C1280.4 664.666 1185.85 744.409 1152.5 847.181 1128.09 922.456 1134.97 1004.6 1114.68 1080.91 1079.27 1214.62 967.869 1311.55 878.131 1416.72 788.393 1521.9 713.784 1667.3 768.795 1794.47 800.771 1868.37 870.911 1919.59 907.012 1991.42 960.992 2099.7 928.673 2231.68 963.743 2347.17 1004.31 2480.19 1131.87 2572.65 1266.31 2607.37 1401.09 2642.09 1543.08 2627.99 1680.61 2607.71 1818.14 2587.43 1956.7 2561.31 2095.26 2572.31 2207.01 2581.25 2314.97 2614.24 2424.3 2638.65 2580.4 2673.71 2740.28 2691.92 2900.15 2692.96 3002.61 2693.64 3107.82 2686.77 3201.34 2644.84 3294.86 2603.25 3376 2520.75 3391.13 2419.7 3403.51 2338.24 3373.6 2256.78 3344.03 2180.13 3316.87 2109.66 3289.7 2038.86 3262.54 1968.4 3249.82 1935.05 3236.76 1900.68 3238.47 1865.28 3240.88 1812.69 3274.58 1767.66 3301.05 1722.29 3442.36 1480.66 3384.26 1141.41 3170.74 960.609 3064.5 870.554 2930.75 820.371 2814.89 743.378 2721.02 680.821 2637.13 599.703 2531.23 561.207 2326.31 486.963 2104.89 590.423 1890 625.826 1748.69 649.199 1604.63 643.012 1461.6 636.825L1386.99 648.511Z" fill="#5BC9E5" fill-rule="evenodd"/><path d="M2228.45 745.669C2147.67 757.355 2083.73 820.599 2005.36 842.597 1925.26 865.282 1839.67 843.285 1756.49 842.253 1667.46 841.566 1578.43 865.97 1502.12 912.028 1470.15 931.62 1439.21 955.68 1422.71 989.364 1383.18 1069.79 1437.49 1161.91 1452.96 1249.9 1470.49 1350.27 1431.99 1458.54 1354.99 1525.56 1306.18 1567.84 1245.34 1593.28 1192.06 1630.05 1138.78 1666.83 1091 1721.83 1091 1786.45 1091 1852.09 1142.56 1908.81 1202.03 1936.99 1264.93 1966.9 1343.65 1975.49 1385.24 2031.52 1454.68 2124.66 1364.62 2260.43 1396.93 2372.14 1422.37 2460.82 1522.4 2511 1614.52 2508.94 1706.64 2506.88 1792.58 2463.91 1873.36 2419.57 1954.14 2375.23 2036.64 2328.14 2127.73 2315.43 2228.79 2301.33 2329.85 2331.24 2428.85 2355.64 2628.91 2404.45 2843.75 2429.2 3037.96 2360.8 3106.71 2336.74 3179.58 2289.65 3186.46 2217.12 3192.3 2157.66 3150.02 2103.35 3100.87 2069.67 3051.71 2035.98 2993.96 2016.05 2944.12 1983.05 2894.28 1950.05 2850.28 1897.81 2852.68 1838.35 2855.43 1765.82 2922.12 1714.95 2957.53 1651.36 3023.87 1532.09 2965.09 1370.2 2852.34 1293.9 2785.65 1248.53 2694.56 1216.22 2677.03 1137.51 2666.03 1089.04 2689.06 1039.2 2690.09 989.708 2692.16 911.684 2634.06 836.41 2558.44 818.537 2503.1 805.476 2445 819.568 2392.07 795.852 2336.04 770.073 2294.79 736.045 2228.45 745.669Z" fill="#7FD1E6" fill-rule="evenodd"/><path d="M1664.28 1286.94C1656.37 1365.66 1701.76 1459.5 1699.7 1537.18 1698.32 1583.58 1682.16 1628.27 1658.78 1667.8 1634.71 1708.01 1604.8 1745.82 1591.04 1790.85 1571.44 1854.1 1589.67 1914.94 1624.05 1969.25 1663.94 2032.15 1726.17 2087.83 1800.44 2104.33 1850.64 2115.68 1899.47 2104.68 1947.26 2089.21 1978.2 2079.24 2008.81 2067.9 2041.13 2061.71 2141.87 2041.77 2244.68 2071.33 2346.11 2063.77 2415.22 2058.62 2482.96 2036.96 2543.82 2003.62 2558.95 1995.37 2573.73 1986.09 2585.08 1973.03 2610.86 1943.81 2605.02 1902.56 2591.27 1869.56 2564.45 1805.63 2527.31 1742.38 2531.09 1670.55 2535.22 1594.58 2590.23 1533.05 2595.74 1457.43 2599.86 1400.03 2567.54 1350.19 2523.19 1316.85 2485.02 1287.97 2439.98 1270.79 2395.28 1253.6 2343.02 1233.66 2282.16 1213.38 2242.61 1171.79 2213.39 1141.2 2185.19 1105.45 2147.37 1084.83 2057.97 1036.02 1986.46 1106.14 1904.28 1133.98 1848.92 1152.89 1786 1150.83 1735.45 1180.73 1687.32 1208.92 1668.41 1245.7 1664.28 1286.94Z" fill="#A3DCEC" fill-rule="evenodd"/><path d="M2109.96 1324.34C2084.84 1328.81 2059.03 1334.3 2033.57 1331.55 2000.54 1328.12 1968.89 1314.03 1936.2 1308.53 1905.58 1303.03 1874.27 1304.06 1843.99 1310.93 1818.53 1316.78 1791.35 1329.49 1781.37 1353.9 1772.08 1375.89 1778.96 1401.67 1789.28 1422.98 1799.95 1444.63 1813.71 1462.51 1819.56 1486.57 1832.98 1542.25 1805.8 1587.96 1788.94 1638.83 1779.99 1665.64 1777.93 1693.82 1788.6 1720.29 1799.26 1746.41 1808.9 1770.13 1806.83 1799 1804.77 1828.56 1795.13 1857.08 1793.07 1886.64 1792.04 1901.77 1793.07 1917.58 1800.98 1930.64 1811.99 1948.17 1833.33 1955.73 1853.63 1957.45 1891.47 1960.54 1927.94 1947.48 1964.76 1940.6 2063.16 1922.04 2156.06 1952.98 2253.43 1960.2 2317.43 1964.66 2431.66 1952.64 2441.29 1869.46 2444.39 1842.65 2436.82 1815.5 2428.22 1790.06 2411.36 1740.57 2391.75 1690.39 2395.88 1636.77 2398.97 1596.9 2413.77 1559.09 2418.58 1519.56 2423.75 1476.6 2411.7 1436.04 2393.81 1397.55 2383.49 1375.55 2374.2 1351.15 2357 1333.96 2334.63 1311.62 2298.51 1307.84 2268.92 1308.87 2220.4 1310.93 2171.89 1314.37 2123.72 1321.93 2119.25 1322.62 2114.77 1323.65 2109.96 1324.34Z" fill="#0F93B2" fill-rule="evenodd" fill-opacity="0.34902"/><path d="M584.508 2479.67C543.3 2388.52 487.67 2303.57 435.13 2218.96 389.458 2145.35 337.948 2073.12 268.239 2020.5 235.959 1996.08 200.933 1979.91 163.846 1978.19 120.921 1976.47 80.0569 1986.45 44 2005.36L44 2430.49C44.3436 2430.49 45.0304 2430.83 45.3736 2430.83 112.336 2451.81 182.389 2478.64 243.514 2517.85 313.91 2562.91 371.601 2617.6 449.896 2650.96 483.549 2665.41 522.696 2676.76 556.349 2662.31 633.957 2629.29 612.323 2540.55 584.508 2479.67Z" fill="#5BC9E5" fill-rule="evenodd"/><path d="M612.093 1738.47C614.155 1784.54 613.811 1839.21 576.354 1866.03 563.639 1875.32 548.175 1879.79 533.054 1883.23 491.129 1892.51 447.83 1895.26 405.218 1891.13 360.2 1886.66 314.838 1874.29 278.412 1847.47 218.961 1803.8 190.438 1725.75 195.593 1652.17 200.748 1578.58 236.487 1509.47 284.254 1453.08 332.021 1396.69 391.128 1351.65 451.266 1308.67 509.686 1267.07 573.605 1224.43 646.458 1215.15 694.568 1208.96 769.14 1226.84 749.895 1292.51 740.617 1324.83 702.472 1335.83 677.042 1352.34 633.399 1380.53 621.715 1410.79 617.248 1461.68 609.344 1553.83 607.969 1646.32 612.093 1738.47Z" fill="#5BC9E5" fill-rule="evenodd"/><path d="M3237.55 778.217C3254.73 830.124 3297.35 869.656 3343.74 898.875 3395.29 931.531 3453.03 953.876 3513.17 964.532 3563 973.47 3613.52 974.157 3659.23 998.22 3702.53 1020.91 3739.65 1056.66 3789.13 1065.94 3847.21 1076.6 3906.32 1044.63 3945.16 999.939 4003.93 932.563 4058.91 774.092 4012.86 687.81 3975.75 617.684 3824.19 651.372 3765.76 660.309 3655.1 676.81 3555.44 615.621 3447.87 595.683 3336.87 575.058 3192.18 641.747 3237.55 778.217Z" fill="#5BC9E5" fill-rule="evenodd"/><path d="M3614.66 1330.54C3579.65 1364.25 3563.52 1412.75 3551.16 1459.53 3539.15 1506.66 3529.53 1555.5 3504.48 1597.12 3489.37 1622.57 3468.78 1644.24 3455.39 1670.73 3442 1696.87 3436.85 1730.58 3453.33 1755 3471.18 1781.14 3506.19 1787.68 3537.43 1792.15 3589.61 1799.37 3647.27 1805.22 3690.87 1775.64 3721.42 1755 3738.93 1720.6 3764.33 1693.77 3805.52 1650.78 3864.22 1630.48 3916.05 1601.25 3967.88 1572.01 4018 1524.54 4018 1465.04 4018 1411.03 3974.41 1364.6 3924.63 1343.96 3872.11 1322.63 3814.44 1325.04 3761.24 1306.47 3710.43 1289.27 3655.86 1290.64 3614.66 1330.54Z" fill="#5BC9E5" fill-rule="evenodd"/><path d="M367.015 1452.17C312.545 1507.38 274.623 1585.22 289.103 1661.35 291.171 1672.67 294.618 1683.98 302.548 1692.21 320.474 1711.42 353.914 1705.24 372.875 1687.41 391.836 1669.24 400.11 1643.17 408.729 1618.83 424.587 1574.59 444.582 1531.38 468.025 1490.57 527.665 1386.33 424.587 1394.21 367.015 1452.17Z" fill="#7FD1E6" fill-rule="evenodd"/><path d="M89.7517 2124.68C80.8018 2144.61 79.0805 2167.64 87.3419 2188.27 108.34 2239.14 178.906 2272.14 211.952 2318.19 230.54 2343.63 245.342 2385.56 279.421 2393.81 299.73 2398.63 322.105 2388.31 334.842 2371.47 380.624 2312.01 339.316 2238.11 301.107 2186.89 270.815 2146.33 224.689 2097.52 175.12 2081.37 137.599 2068.99 104.209 2092.37 89.7517 2124.68Z" fill="#7FD1E6" fill-rule="evenodd"/><path d="M2937.53 1131.49C2956.48 1148.99 2980.6 1159.98 3002.99 1172.33 3022.63 1183.31 3041.24 1196.01 3058.81 1210.43 3073.62 1222.44 3091.19 1236.86 3109.8 1232.05 3117.72 1229.99 3124.61 1224.84 3130.12 1219.01 3165.61 1182.97 3165.96 1118.1 3131.16 1081.72 3115.31 1065.25 3093.6 1054.26 3078.44 1037.1 3068.45 1025.43 3061.22 1011.7 3051.23 1000.03 2965.78 900.5 2842.1 1042.25 2937.53 1131.49Z" fill="#7FD1E6" fill-rule="evenodd"/><path d="M1261.2 825.317C1244.04 864.439 1240.26 908.022 1244.72 950.576 1246.09 962.93 1249.18 976.657 1259.48 982.834 1270.46 989.355 1284.53 984.893 1295.17 977.687 1326.4 956.753 1339.45 916.944 1364.5 888.804 1400.19 848.996 1457.85 835.269 1496.98 798.892 1513.45 783.45 1527.18 758.741 1515.85 738.837 1504.18 718.246 1475.01 718.589 1451.33 721.335 1368.28 731.63 1299.29 740.209 1261.2 825.317Z" fill="#7FD1E6" fill-rule="evenodd"/><path d="M1083.36 1550.81C1057.27 1584.5 1025.36 1615.09 1007.17 1653.59 992.409 1685.21 987.947 1721.65 994.125 1756.02 997.9 1776.99 1005.45 1799.68 994.811 1817.9 980.74 1841.62 942.645 1839.21 923.083 1819.62 903.52 1800.02 898.372 1770.46 895.627 1742.96 891.165 1692.43 894.254 1637.09 925.828 1597.22 950.195 1566.62 989.32 1548.06 1007.17 1513 1025.7 1477.25 1019.52 1429.13 1049.38 1401.97 1062.08 1390.28 1080.95 1384.78 1097.77 1389.94 1164.01 1410.56 1108.07 1519.19 1083.36 1550.81Z" fill="#7FD1E6" fill-rule="evenodd"/><path d="M2602.98 2489.47C2656.62 2516.95 2710.27 2552.66 2770.45 2553 2797.62 2553.35 2828.92 2547.51 2848.52 2566.05 2869.5 2585.97 2862.27 2623.75 2839.92 2642.29 2817.91 2660.83 2786.96 2664.61 2758.07 2663.93 2728.5 2663.24 2699.61 2658.77 2670.38 2654.65 2615.01 2646.41 2559.64 2638.17 2504.28 2629.58 2470.23 2624.43 2432.4 2617.22 2411.77 2589.75 2387.35 2557.47 2403.52 2491.88 2436.53 2468.87 2482.96 2436.93 2559.64 2467.15 2602.98 2489.47Z" fill="#7FD1E6" fill-rule="evenodd"/><path d="M1424.63 1657.67C1417.42 1672.46 1413.3 1689.32 1410.89 1706.86 1407.45 1730.94 1387.53 1795.94 1436.66 1785.97 1486.47 1775.99 1535.59 1700.67 1559.98 1661.11 1593.99 1605.39 1533.53 1612.27 1496.09 1612.27 1459.67 1611.58 1437.34 1630.84 1424.63 1657.67Z" fill="#A3DCEC" fill-rule="evenodd"/><path d="M2881.99 2206.68C2899.17 2203.91 2915.67 2197 2930.79 2187.67 2951.76 2174.88 3018.09 2151.72 2967.23 2109.21 2915.67 2066.36 2816.34 2067.74 2765.13 2069.81 2693.3 2072.92 2752.07 2128.57 2785.07 2166.24 2816.69 2202.53 2850.37 2211.86 2881.99 2206.68Z" fill="#A3DCEC" fill-rule="evenodd"/><path d="M2497.09 971.22C2485.43 968.463 2473.08 968.463 2461.07 970.186 2444.61 972.598 2396.24 969.496 2417.16 1009.82 2438.43 1050.83 2501.9 1077.02 2534.83 1089.43 2581.14 1107.01 2558.84 1055.66 2548.21 1022.92 2537.23 991.553 2518.36 976.734 2497.09 971.22Z" fill="#A3DCEC" fill-rule="evenodd"/><path d="M3669.63 783.838C3657.58 784.87 3644.16 786.59 3635.9 795.19 3624.2 807.573 3628.67 829.244 3639.69 841.971 3651.05 855.043 3667.22 862.266 3681.33 871.898 3707.49 889.441 3730.55 915.928 3761.88 916.96 3808.69 918.679 3866.86 865.362 3830.72 820.988 3796.64 779.022 3716.44 779.71 3669.63 783.838Z" fill="#7FD1E6" fill-rule="evenodd"/><path d="M3654.31 1435.83C3639.52 1452.94 3625.76 1475.87 3632.98 1497.42 3637.11 1509.06 3647.77 1517.96 3660.16 1521.04 3664.97 1522.06 3669.79 1522.41 3674.6 1521.38 3686.3 1519.33 3695.93 1511.8 3705.91 1504.95 3738.58 1483.05 3819.77 1478.26 3772.64 1433.77 3737.55 1400.58 3684.58 1400.23 3654.31 1435.83Z" fill="#7FD1E6" fill-rule="evenodd"/><path d="M4179 1839C4130.13 1875.11 4086.43 1920.85 4059.58 1946.3 3999.36 2003.04 3932.94 2062.88 3909.88 2145.07 3899.21 2182.55 3898.87 2222.44 3898.18 2261.3 3897.49 2324.23 3896.8 2387.17 3896.12 2450.1 3895.77 2473.14 3895.77 2496.87 3902.31 2519.22 3921.93 2584.91 4007.27 2621.02 4068.19 2589.38 4086.77 2579.75 4102.6 2564.96 4116.71 2549.49 4140.8 2523.35 4161.45 2494.46 4178.66 2463.51L4178.66 1839Z" fill="#7FD1E6" fill-rule="evenodd"/><path d="M44 493.344 44 1277C72.1639 1256.38 98.2671 1231.63 125.401 1209.63 192.72 1155.67 272.403 1116.49 356.551 1096.55 411.849 1083.49 469.894 1077.99 520.726 1052.9 594.914 1016.47 644.373 943.603 678.376 868.33 712.722 793.058 735.391 712.63 775.232 640.451 795.496 603.331 820.913 569.647 851.824 540.776 867.967 525.652 887.888 510.873 903 493L44 493Z" fill="#5BC9E5" fill-rule="evenodd"/><path d="M44 493 44 843C62.8755 831.654 80.3778 817.558 98.9099 805.525 141.808 776.644 192.6 756.016 246.48 745.357 281.829 738.481 318.893 735.387 351.495 722.322 398.855 703.069 430.428 663.874 452.049 623.992 474.013 583.766 488.427 541.134 513.823 502.283 515.882 499.189 517.941 496.438 520 493.344L44 493.344Z" fill="#7FD1E6" fill-rule="evenodd"/><path d="M1868 1387 2352 1387 2352 1871 1868 1871Z" fill="#E6E7E8" fill-rule="evenodd"/><path d="M1880 1399 2340 1399 2340 1859 1880 1859Z" fill="#ABACB2" fill-rule="evenodd" fill-opacity="0.439216"/><path d="M1754 1500 1880 1500 1880 1559 1754 1559Z" fill="#E6E7E8" fill-rule="evenodd"/><path d="M1764 1511 1880 1511 1880 1548 1764 1548Z" fill="#ABACB2" fill-rule="evenodd" fill-opacity="0.439216"/><path d="M1754 1718 1880 1718 1880 1776 1754 1776Z" fill="#E6E7E8" fill-rule="evenodd"/><path d="M1764 1728 1880 1728 1880 1765 1764 1765Z" fill="#ABACB2" fill-rule="evenodd" fill-opacity="0.439216"/><path d="M2467 1777 2340 1777 2340 1718 2467 1718Z" fill="#E6E7E8" fill-rule="evenodd"/><path d="M2457 1766 2340 1766 2340 1729 2457 1729Z" fill="#ABACB2" fill-rule="evenodd" fill-opacity="0.439216"/><path d="M2467 1559 2340 1559 2340 1500 2467 1500Z" fill="#E6E7E8" fill-rule="evenodd"/><path d="M2457 1548 2340 1548 2340 1512 2457 1512Z" fill="#ABACB2" fill-rule="evenodd" fill-opacity="0.439216"/><path d="M1972 1986 1972 1859 2031 1859 2031 1986Z" fill="#E6E7E8" fill-rule="evenodd"/><path d="M1983 1976 1983 1859 2020 1859 2020 1976Z" fill="#ABACB2" fill-rule="evenodd" fill-opacity="0.439216"/><path d="M2190 1986 2190 1859 2249 1859 2249 1986Z" fill="#E6E7E8" fill-rule="evenodd"/><path d="M2200 1976 2200 1859 2237 1859 2237 1976Z" fill="#ABACB2" fill-rule="evenodd" fill-opacity="0.439216"/><path d="M2248 1273 2248 1399 2190 1399 2190 1273Z" fill="#E6E7E8" fill-rule="evenodd"/><path d="M2238 1283 2238 1399 2201 1399 2201 1283Z" fill="#ABACB2" fill-rule="evenodd" fill-opacity="0.439216"/><path d="M2031 1273 2031 1399 1972 1399 1972 1273Z" fill="#E6E7E8" fill-rule="evenodd"/><path d="M2020 1282 2020 1399 1983 1399 1983 1282Z" fill="#ABACB2" fill-rule="evenodd" fill-opacity="0.439216"/></g></svg>