<svg width="357" height="397" viewBox="0 0 357 397" fill="none" xmlns="http://www.w3.org/2000/svg">
<g clip-path="url(#clip0_342_1868)">
<path d="M262.832 126.031C267.758 114.983 272.644 103.843 275.594 92.1126C278.544 80.3818 279.498 67.9282 276.501 56.2086C276.047 54.4299 271.846 42.3882 270.013 42.377C268.703 42.377 270.906 53.4187 270.134 54.4747C262.742 64.5586 259.675 77.3146 259.364 89.8185C259.054 102.322 260.453 113.751 262.832 126.031Z" fill="#263238"/>
<path d="M188.353 185.573C189.162 177.069 189.772 170.349 189.707 170.344C189.707 170.344 160.881 164.316 162.034 135.224C162.593 121.171 166.083 92.323 169.545 66.2535C171.344 52.7427 178.16 40.4048 188.635 31.695C199.111 22.9851 212.479 18.5417 226.079 19.2489L228.878 19.3945C259.009 22.7306 273.011 50.2062 268.849 80.256L257.629 185.856L198.909 218.704L188.353 185.573Z" fill="#FBBF9E"/>
<path d="M189.719 170.344C189.719 170.344 207.974 172.369 228.122 161.114C228.122 161.114 217.918 182.22 189.066 178.097L189.719 170.344Z" fill="#F7996E"/>
<path d="M176.749 91.8996C176.556 94.0872 178.252 96.0536 180.53 96.2973C182.809 96.541 184.81 94.964 185.008 92.7735C185.207 90.5831 183.505 88.6168 181.227 88.3759C178.949 88.135 176.94 89.712 176.749 91.8996Z" fill="#263238"/>
<path d="M175.143 78.6426C175.627 79.2028 178.891 77.046 183.354 77.2897C187.832 77.4689 190.975 79.9367 191.488 79.4157C191.737 79.186 191.264 78.1804 189.892 77.0684C188.03 75.6266 185.768 74.7978 183.416 74.6959C180.634 74.567 178.244 75.4718 176.845 76.4493C175.445 77.4269 174.902 78.3877 175.143 78.6426Z" fill="#263238"/>
<path d="M216.558 96.2365C216.368 98.4241 218.061 100.39 220.342 100.634C222.623 100.878 224.621 99.3009 224.82 97.1104C225.019 94.92 223.317 92.9537 221.042 92.7128C218.766 92.4719 216.748 94.0489 216.558 96.2365Z" fill="#263238"/>
<path d="M218.775 82.7183C219.262 83.2785 222.531 81.1245 226.989 81.3654C231.45 81.5446 234.61 84.0152 235.122 83.4914C235.371 83.2617 234.904 82.2589 233.524 81.1441C231.663 79.703 229.401 78.8742 227.051 78.7716C224.269 78.6455 221.879 79.5475 220.479 80.5251C219.08 81.5026 218.537 82.4634 218.775 82.7183Z" fill="#263238"/>
<path d="M200.983 116.219C201.017 115.967 198.269 115.342 193.802 114.538C192.668 114.362 191.599 114.079 191.448 113.289C191.224 112.448 191.764 111.247 192.386 109.947L196.206 101.435C201.524 89.3089 205.442 79.3063 204.955 79.1018C204.468 78.8973 199.752 88.5498 194.432 100.67C193.148 103.658 191.92 106.516 190.749 109.244C190.25 110.519 189.433 111.95 189.926 113.689C190.07 114.101 190.305 114.474 190.614 114.781C190.924 115.087 191.299 115.32 191.711 115.46C192.334 115.663 192.98 115.787 193.634 115.829C198.148 116.306 200.947 116.474 200.983 116.219Z" fill="#263238"/>
<path d="M220.7 66.0466C221.078 67.2846 225.564 66.9401 230.775 67.842C235.998 68.6403 240.143 70.3938 240.893 69.3406C241.231 68.8364 240.554 67.66 238.906 66.3911C237.257 65.1222 234.632 63.8701 231.506 63.3603C228.38 62.8505 225.475 63.2035 223.527 63.8813C221.579 64.5592 220.538 65.4611 220.7 66.0466Z" fill="#263238"/>
<path d="M175.759 65.6229C176.492 66.6789 179.621 65.7854 183.315 65.9254C187.021 65.9254 190.108 66.9618 190.872 65.9254C191.213 65.4268 190.774 64.3848 189.455 63.3513C188.137 62.3177 185.94 61.4269 183.396 61.3709C180.852 61.3149 178.602 62.1244 177.261 63.0992C175.921 64.0739 175.423 65.1103 175.759 65.6229Z" fill="#263238"/>
<path d="M265.379 101.662C265.885 101.474 285.644 96.7882 283.982 116.634C282.319 136.479 262.754 130.712 262.768 130.14C262.782 129.569 265.379 101.662 265.379 101.662Z" fill="#FBBF9E"/>
<path d="M269.454 123.132C269.546 123.073 269.781 123.412 270.341 123.717C271.131 124.142 272.056 124.242 272.919 123.998C275.076 123.407 277.117 120.225 277.517 116.656C277.708 114.955 277.516 113.232 276.957 111.614C276.473 110.113 275.619 109.02 274.581 108.743C274.193 108.605 273.769 108.607 273.382 108.748C272.995 108.89 272.67 109.163 272.462 109.519C272.149 110.051 272.244 110.46 272.135 110.485C272.076 110.53 271.737 110.116 271.964 109.309C272.118 108.828 272.43 108.414 272.849 108.132C273.431 107.765 274.135 107.641 274.808 107.788C276.327 108.02 277.587 109.544 278.166 111.166C278.865 112.958 279.115 114.894 278.894 116.804C278.432 120.793 276.073 124.367 273.137 124.95C272.592 125.061 272.029 125.047 271.489 124.91C270.95 124.773 270.449 124.517 270.022 124.16C269.451 123.614 269.384 123.16 269.454 123.132Z" fill="#F7996E"/>
<path d="M185.42 34.5987C182.378 32.5287 192.976 23.0303 201.177 20.1844C213.586 15.882 232.08 14.2406 242.771 18.3777C255.645 23.358 266 30.9601 271.533 43.6181C277.066 56.2761 278.25 70.5391 276.59 84.2503C276.084 88.4351 275.244 92.7655 272.672 96.1044C269.499 100.233 263.935 102.499 263.604 108.569C263.487 110.788 262.65 112.958 260.988 114.429C257.005 117.955 252.905 113.916 251.192 110.09C247.554 101.919 247.932 92.6031 248.374 83.6705C248.69 77.3205 249.032 70.8388 251.377 64.9286C252.65 61.713 254.497 58.7354 255.595 55.4554C256.692 52.1753 256.941 48.3575 255.108 45.4248C254.677 44.7887 254.189 44.1933 253.649 43.6461C251.109 40.9742 247.903 39.0279 244.361 38.0073C240.819 36.9868 237.07 36.9288 233.499 37.8395C221.977 40.7526 202.38 44.8842 197.754 40.6406C191.129 34.5146 189.752 30.8116 189.752 30.8116L185.42 34.5987Z" fill="#263238"/>
<path opacity="0.07" d="M278.149 76.4966H281.877C280.338 73.4995 278.908 71.1326 278.908 71.1326C278.908 71.1326 181.849 52.7912 171.916 56.1133C170.981 58.8981 170.274 61.7543 169.8 64.6537C178.555 64.3736 224.722 64.7686 251.153 74.3258C258.782 77.0848 272.591 83.0427 276.977 85.6477C277.533 82.6209 277.925 79.566 278.149 76.4966Z" fill="#010101"/>
<path d="M268.972 19.6074C269.501 19.9716 269.795 20.1396 269.795 20.1396C269.094 19.5339 268.355 18.9726 267.584 18.459C267.925 18.7559 268.267 19.05 268.603 19.3581C268.734 19.4254 268.863 19.515 268.972 19.6074Z" fill="#263238"/>
<path d="M179.898 23.484C179.808 23.3794 179.733 23.2624 179.677 23.1367C179.618 23.2179 179.702 23.3384 179.898 23.484Z" fill="#263238"/>
<path d="M287.886 73.6675C286.954 72.4689 285.858 71.4088 284.628 70.5191C284.525 70.4943 284.426 70.4576 284.331 70.4099L283.492 70.0486L280.243 68.606C278.843 67.9702 277.119 67.1887 275.079 66.3876C273.039 65.5865 270.763 64.5585 268.161 63.6425C265.558 62.7266 262.751 61.6146 259.658 60.6314C256.596 59.567 253.269 58.5978 249.773 57.5502C242.757 55.5671 234.965 53.6568 226.712 51.9929C210.183 48.7381 195.05 46.8334 184.104 45.4384L171.132 43.8222L167.606 43.3629L166.691 43.2312C166.556 43.2116 166.481 43.1948 166.433 43.1836C166.433 43.1836 144.92 51.3515 141.894 52.9397C137.945 54.9929 134.724 60.4101 144.852 60.4101L176.066 59.6174C220.135 59.1132 251.301 65.805 282.495 81.8242C286.724 82.925 289.156 75.3482 287.886 73.6675Z" fill="#F1EA2A"/>
<path d="M184.575 53.9851L153.369 54.7778C147.282 54.7778 146.02 52.8171 146.837 50.8115C144.481 51.7639 142.639 52.5426 141.903 52.9263C137.954 54.9795 134.733 60.3968 144.861 60.3968L176.075 59.6041C220.144 59.0999 251.31 65.7916 282.504 81.8109C286.095 82.7576 288.382 77.4384 288.214 74.783C257.932 59.7805 227.325 53.5005 184.575 53.9851Z" fill="#F8EE54"/>
<path d="M166.696 43.1809L167.617 43.2621L171.155 43.6235L184.146 45.08C195.109 46.3797 210.267 48.2256 226.807 51.4973C235.072 53.1779 242.877 55.091 249.899 57.0994C253.397 58.1498 256.725 59.1386 259.79 60.2226C262.868 61.2254 265.703 62.3178 268.284 63.3037C270.884 64.2421 273.156 65.2897 275.185 66.1216C277.214 66.9535 278.924 67.7602 280.321 68.4241L283.531 69.9535L284.371 70.3624C284.47 70.4041 284.563 70.4567 284.651 70.5193C284.651 70.5193 287.486 63.1553 280.69 38.2539C278.575 30.4977 273.974 24.2485 268.62 19.3327C268.121 18.9854 267.469 18.554 266.66 18.0526C263.736 16.24 260.62 14.7584 257.369 13.6353C252.564 11.9603 247.545 10.9839 242.463 10.7362C236.751 10.4309 230.333 10.8763 224.151 13.2824C221.053 14.442 218.167 15.9266 215.388 17.3663C212.634 18.8537 209.889 20.1674 207.437 21.6324C204.985 23.0973 202.679 24.6519 200.239 25.5762C197.835 26.6126 195.31 26.6407 193.155 26.5258C189.705 26.3614 186.283 25.8194 182.951 24.9096C182.039 24.6715 181.161 24.3185 180.337 23.8592C180.17 23.7596 180.021 23.6316 179.898 23.4811C179.702 23.3354 179.618 23.2009 179.682 23.1337L166.447 43.1641C166.498 43.1669 166.576 43.1697 166.696 43.1809Z" fill="#F8EE54"/>
<path d="M166.38 43.1701H166.434L166.448 43.1533C166.424 43.1545 166.401 43.1602 166.38 43.1701Z" fill="#263238"/>
<path d="M167.606 43.3637L171.133 43.8231L184.105 45.4393C195.05 46.8342 210.183 48.7389 226.695 52.0022C234.949 53.666 242.74 55.5763 249.757 57.5595C253.252 58.5987 256.58 59.5679 259.642 60.6407C262.72 61.6238 265.558 62.6966 268.144 63.6518C270.73 64.607 273.025 65.5901 275.062 66.3968C277.1 67.2035 278.821 67.9794 280.226 68.6153L283.475 70.0578L284.315 70.4192C284.409 70.4669 284.509 70.5035 284.612 70.5284C284.524 70.4658 284.431 70.4132 284.332 70.3715L283.492 69.9626L280.282 68.4332C278.883 67.7694 277.178 66.9598 275.146 66.1307C273.115 65.3016 270.884 64.2428 268.284 63.3045C265.704 62.3241 262.88 61.2317 259.79 60.2233C256.711 59.1393 253.398 58.1505 249.899 57.1001C242.877 55.0862 235.066 53.159 226.807 51.498C210.267 48.2264 195.109 46.3805 184.155 45.0808L171.163 43.6242L167.626 43.2629L166.705 43.1816C166.585 43.1816 166.506 43.1816 166.456 43.1816L166.442 43.1984C166.489 43.1984 166.565 43.2265 166.699 43.2461L167.606 43.3637Z" fill="#263238"/>
<path d="M213.15 124.328C213.157 124.227 213.136 124.125 213.09 124.034C213.044 123.944 212.974 123.867 212.887 123.813C212.801 123.759 212.702 123.73 212.6 123.729C212.498 123.727 212.398 123.753 212.31 123.804C207.533 125.157 201.812 126.816 197.035 128.168C197.62 129.782 198.454 132.894 199.366 134.345C200.278 135.796 201.552 137.081 203.15 137.706C206.329 138.939 210.119 137.146 211.921 134.241C213.723 131.336 213.838 127.67 213.15 124.328Z" fill="#F7996E"/>
<path d="M202.282 137.451C202.318 137.37 202.814 137.6 203.748 137.745C205.059 137.949 206.401 137.801 207.636 137.317C209.446 136.583 210.927 135.215 211.803 133.468C212.882 131.323 213.226 128.882 212.783 126.522C212.621 125.66 212.378 124.816 212.055 124.001L212.673 124.306C208.196 125.558 204.258 126.791 201.381 127.505C198.504 128.219 196.735 128.519 196.704 128.396C196.673 128.272 198.383 127.751 201.182 126.847C203.981 125.942 207.882 124.606 212.377 123.312L212.822 123.186L212.995 123.62C213.361 124.493 213.637 125.4 213.821 126.328C214.302 129.057 213.846 131.804 212.659 133.916C211.473 136.028 209.64 137.463 207.902 138C206.539 138.464 205.07 138.509 203.681 138.132C202.693 137.858 202.254 137.496 202.282 137.451Z" fill="#263238"/>
<path d="M140.733 258.429L140.753 397.017L328.526 397C328.526 397 313.805 203.5 309.839 201.609C306.878 200.209 270.612 188.29 270.612 188.29L263.674 173.257L187.807 196.394L163.629 201.693L140.733 258.429Z" fill="#F78E1E"/>
<path d="M270.612 188.29C270.542 188.542 270.448 188.787 270.332 189.021L269.476 191.097C268.709 192.94 267.618 195.578 266.252 198.861C264.886 202.144 263.263 206.197 261.519 210.771C259.776 215.345 257.847 220.48 256.403 226.149L256.249 226.76L255.874 226.258C254.273 224.11 252.686 221.808 251.018 219.471C249.348 217.06 247.485 214.788 245.446 212.679C243.984 211.215 242.437 209.839 240.812 208.559L241.231 208.528C231.33 219.116 222.029 228.026 215.187 234.236C211.764 237.345 208.971 239.793 207.023 241.457L204.784 243.351L204.188 243.829C204.053 243.936 203.981 243.986 203.975 243.978C203.969 243.97 204.028 243.905 204.151 243.785C204.274 243.664 204.479 243.477 204.711 243.264L206.888 241.286C208.789 239.569 211.54 237.085 214.918 233.928C221.682 227.642 230.918 218.69 240.795 208.105L240.991 207.895L241.215 208.071C242.861 209.365 244.428 210.757 245.908 212.239C247.969 214.373 249.853 216.672 251.539 219.113C253.218 221.46 254.785 223.757 256.372 225.903L255.843 226.012C257.324 220.278 259.308 215.166 261.063 210.589C262.818 206.012 264.517 202.024 265.927 198.718C267.338 195.413 268.499 192.8 269.314 191.015L270.259 188.979C270.357 188.74 270.475 188.509 270.612 188.29Z" fill="#263238"/>
<path d="M188.96 182.321L186.721 216.214L202.805 244.984L261.617 173.276C261.617 173.276 189.495 182.273 188.96 182.321Z" fill="#FBBF9E"/>
<path d="M172.772 194.78C172.562 196.181 160.007 220.071 160.007 220.071C160.007 220.071 175.985 203.842 175.747 204.559C175.509 205.276 200.594 240.838 200.594 240.838L186.953 209.332L189.259 174.318L172.772 194.78Z" fill="#F78E1E"/>
<path d="M172.772 194.78C172.772 194.78 172.854 194.652 173.036 194.411C173.217 194.17 173.511 193.803 173.875 193.346L177.105 189.265L189.139 174.218L189.495 173.772L189.458 174.333C188.837 184.027 188.073 195.954 187.219 209.346L187.2 209.234L200.614 240.18L200.855 240.74L201.862 243.068L200.387 240.987C192.968 230.438 185.918 220.374 179.64 211.113C178.862 209.948 178.096 208.798 177.34 207.662L176.243 205.948C176.064 205.668 175.89 205.388 175.722 205.072L175.602 204.836L175.543 204.693C175.53 204.63 175.53 204.564 175.543 204.5C175.527 204.542 175.527 204.587 175.543 204.629C175.567 204.681 175.609 204.724 175.661 204.749C175.708 204.767 175.759 204.767 175.806 204.749C175.745 204.789 175.582 204.926 175.47 205.029C173.528 206.803 171.709 208.64 169.937 210.385L160.142 220.189L159.271 221.06L159.848 219.973C163.934 212.231 167.206 205.948 169.436 201.59C170.556 199.411 171.395 197.716 171.955 196.548C172.235 195.971 172.437 195.523 172.574 195.223C172.711 194.923 172.764 194.761 172.764 194.761C172.764 194.761 172.725 194.929 172.624 195.243C172.523 195.556 172.319 196.007 172.05 196.593C171.521 197.772 170.693 199.481 169.607 201.677C167.433 206.063 164.208 212.374 160.164 220.138L159.868 219.923L169.635 210.08C171.407 208.324 173.206 206.494 175.171 204.688C175.306 204.558 175.455 204.443 175.613 204.343C175.626 204.334 175.64 204.327 175.655 204.324C175.712 204.305 175.774 204.305 175.831 204.324C175.862 204.335 175.891 204.353 175.913 204.377C175.936 204.401 175.953 204.429 175.963 204.461C176.184 204.595 175.683 204.576 175.795 204.573C175.856 204.595 175.922 204.595 175.983 204.573C175.984 204.564 175.984 204.554 175.983 204.545L176.019 204.632L176.128 204.839C176.285 205.119 176.458 205.399 176.637 205.679C176.998 206.24 177.365 206.8 177.732 207.382L180.038 210.822C186.332 220.066 193.393 230.119 200.813 240.665L200.362 240.917C200.284 240.737 200.203 240.553 200.124 240.356L186.732 209.43L186.71 209.374V209.315C187.617 195.934 188.423 184.01 189.08 174.319L189.4 174.445L177.27 189.352L173.956 193.385L173.083 194.427C172.884 194.674 172.772 194.78 172.772 194.78Z" fill="#263238"/>
<g opacity="0.3">
<path d="M326.71 372.768L227.051 216.136L218.439 222.685C218.794 223.478 219.08 224.299 219.295 225.141C220.821 230.362 223.773 242.88 229.214 261.174C235.948 283.767 256.219 332.646 273.713 356.623C291.208 380.6 299.053 386.788 311.952 387.381C324.851 387.975 327.759 387.23 327.759 387.23L326.71 372.768Z" fill="black"/>
</g>
<path d="M189.081 175.444C189.111 175.464 188.896 175.859 188.484 176.565L186.749 179.522C185.297 182.024 183.374 185.531 181.479 189.514C179.585 193.497 178.084 197.194 177.06 199.909L175.865 203.121C175.743 203.525 175.579 203.916 175.378 204.287C175.342 204.287 175.448 203.838 175.672 203.057C175.896 202.275 176.232 201.155 176.713 199.783C179.192 192.63 182.451 185.772 186.433 179.335C187.203 178.105 187.846 177.122 188.314 176.458C188.781 175.794 189.05 175.424 189.081 175.444Z" fill="#263238"/>
<path d="M223.675 230.754C223.675 230.754 266.775 327.486 281.281 348.292C296.29 369.827 310.488 383.339 328.946 377.678C347.403 372.017 354.543 358.455 355.111 345.315C355.671 332.604 350.353 293.775 350.353 293.775L310.46 292.285L256.297 214.088L223.675 230.754Z" fill="#FBBF9E"/>
<path d="M202.229 184.31L219.567 135.515C219.567 135.515 221.758 131.49 226.757 133.484C228.595 134.218 250.117 141.974 250.117 141.974C250.117 141.974 252.2 143.313 251.259 146.686C250.66 148.837 232.788 198.914 232.788 198.914L204.353 188.766C203.921 188.614 203.523 188.378 203.182 188.071C202.841 187.764 202.563 187.393 202.366 186.979C202.169 186.565 202.055 186.116 202.031 185.658C202.008 185.2 202.075 184.742 202.229 184.31Z" fill="#455B64"/>
<path d="M238.402 130.756L228.064 127.106L225.763 133.636L236.101 137.286L238.402 130.756Z" fill="#455B64"/>
<path d="M267.248 62.1416C266.257 63.1332 240.907 138.742 240.907 138.742L246.319 140.613L270.223 63.3937L267.248 62.1416Z" fill="#455B64"/>
<path d="M224.403 232.614C224.403 232.614 213.939 217.923 212.03 204.8C210.121 191.677 207.104 185.4 207.104 185.4C207.104 185.4 198.641 175.291 200.007 169.554C201.372 163.817 204.647 164.91 204.647 164.91C204.647 164.91 201.372 160.537 205.207 156.168C209.041 151.798 214.761 155.888 214.761 155.888C214.761 155.888 206.911 148.919 211.487 144.683C214.994 141.437 219.402 144.683 219.402 144.683L229.494 150.417C229.494 150.417 218.251 138.174 218.251 134.622C218.251 131.07 221.968 127.866 225.248 130.051C228.528 132.235 243.423 148.232 243.423 148.232L248.928 154.311L250.383 150.109C250.383 150.109 251.783 152.412 255.981 156.434C257.94 158.327 259.692 160.142 260.909 161.456C262.09 162.726 262.749 164.394 262.756 166.128C262.782 171.31 262.686 182.487 261.441 185.394C259.804 189.22 253.207 209.618 253.207 209.618L259.241 218.332" fill="#FBBF9E"/>
<path d="M259.238 218.337C259.238 218.337 259.093 218.157 258.83 217.777L257.654 216.127L253.12 209.667L253.092 209.625L253.109 209.578C254.072 206.606 255.244 202.987 256.607 198.785C257.97 194.584 259.557 189.786 261.511 184.604C262.14 181.929 262.261 178.985 262.406 175.959C262.552 172.934 262.557 169.758 262.546 166.478C262.612 164.84 262.083 163.233 261.057 161.954C259.938 160.725 258.681 159.512 257.469 158.262C255.051 155.741 252.306 153.347 250.193 150.223L250.613 150.176L249.16 154.377L249.029 154.758L248.749 154.459C243.076 148.123 236.899 141.557 230.252 134.932C228.573 133.311 226.894 131.571 225.018 130.204C224.543 129.902 224.009 129.702 223.451 129.619C222.892 129.55 222.324 129.612 221.792 129.798C220.986 130.123 220.274 130.643 219.72 131.313C219.167 131.983 218.789 132.78 218.621 133.633C218.561 133.917 218.527 134.207 218.52 134.498C218.511 134.778 218.551 135.058 218.637 135.324C218.993 136.445 219.639 137.504 220.291 138.534C221.666 140.606 223.15 142.603 224.736 144.518C226.346 146.484 227.994 148.396 229.681 150.254L230.778 151.459L229.362 150.655L219.264 144.915L219.245 144.901C217.77 143.918 215.923 143.279 214.207 143.588C213.343 143.739 212.539 144.127 211.881 144.708C211.56 144.996 211.263 145.311 210.994 145.649L210.698 146.209C210.65 146.305 210.594 146.397 210.555 146.49L210.479 146.798C210.003 148.478 210.759 150.226 211.599 151.702C212.527 153.175 213.645 154.518 214.924 155.699L214.613 156.086C213.224 155.142 211.619 154.564 209.947 154.405C209.135 154.363 208.323 154.483 207.557 154.758C206.815 155.068 206.147 155.532 205.598 156.12C204.457 157.252 203.754 158.753 203.614 160.355C203.526 161.922 203.96 163.473 204.848 164.766L205.198 165.293L204.588 165.128C203.6 164.862 202.5 165.352 201.826 166.145C201.157 166.982 200.675 167.952 200.409 168.99C199.727 171.041 200.323 173.192 201.042 175.108C202.592 178.962 204.915 182.298 207.272 185.267L207.291 185.293V185.309C210.275 192.575 211.38 199.631 212.363 205.757C212.871 208.596 213.65 211.38 214.688 214.071C215.634 216.558 216.606 218.799 217.585 220.762C219.073 223.795 220.712 226.752 222.497 229.619L223.913 231.86C224.24 232.359 224.4 232.619 224.4 232.619C224.4 232.619 224.207 232.381 223.865 231.894C223.524 231.406 223.026 230.67 222.396 229.689C220.568 226.839 218.895 223.893 217.384 220.863C216.387 218.903 215.397 216.662 214.431 214.169C213.371 211.466 212.572 208.668 212.046 205.813C211.52 202.732 211.025 199.472 210.219 196.051C209.413 192.631 208.461 189.032 206.93 185.494L206.958 185.536C204.566 182.536 202.226 179.206 200.628 175.273L200.348 174.531L200.121 173.758C199.964 173.24 199.845 172.711 199.763 172.175C199.712 171.905 199.687 171.63 199.687 171.355C199.661 171.075 199.657 170.794 199.673 170.514C199.828 168.817 200.455 167.197 201.484 165.839C202.24 164.963 203.48 164.349 204.736 164.685L204.476 165.047C203.517 163.664 203.048 162.001 203.144 160.321C203.289 158.607 204.035 156.999 205.251 155.783C205.85 155.146 206.577 154.644 207.384 154.31C208.213 154.006 209.096 153.874 209.978 153.921C211.744 154.083 213.44 154.692 214.907 155.691L214.596 156.08C213.278 154.868 212.126 153.486 211.17 151.971C210.689 151.19 210.313 150.349 210.051 149.47C209.824 148.582 209.684 147.599 209.984 146.669L210.071 146.319C210.118 146.207 210.18 146.103 210.233 145.997L210.572 145.358C210.865 144.981 211.192 144.632 211.548 144.313C212.274 143.674 213.161 143.247 214.112 143.078C215.063 142.92 216.038 142.983 216.961 143.263C217.886 143.527 218.763 143.938 219.558 144.481L219.533 144.464L229.634 150.201L229.314 150.601C227.618 148.734 225.963 146.815 224.347 144.845C222.749 142.923 221.254 140.918 219.869 138.837C219.206 137.781 218.545 136.722 218.153 135.493C218.053 135.174 218.006 134.841 218.016 134.507C218.023 134.185 218.059 133.866 218.125 133.551C218.246 132.923 218.474 132.32 218.8 131.77C219.427 130.647 220.431 129.782 221.635 129.33C222.243 129.117 222.893 129.048 223.532 129.129C224.164 129.221 224.768 129.446 225.307 129.79C227.297 131.246 228.925 132.952 230.624 134.588C237.277 141.232 243.451 147.812 249.118 154.159L248.718 154.24L250.176 150.038L250.33 149.596L250.61 149.994C251.65 151.477 252.807 152.874 254.069 154.173C255.312 155.47 256.588 156.694 257.811 157.963C259.034 159.232 260.263 160.416 261.421 161.696C262.504 163.053 263.061 164.755 262.991 166.489C262.991 169.775 262.955 172.932 262.821 175.987C262.686 179.043 262.541 181.959 261.883 184.71C259.89 189.94 258.326 194.699 256.901 198.889C255.477 203.079 254.31 206.69 253.325 209.653V209.567C255.267 212.41 256.761 214.592 257.777 216.082L258.911 217.763C259.123 218.138 259.238 218.337 259.238 218.337Z" fill="#F7996E"/>
<path d="M256.126 165.109C255.975 165.167 254.903 162.428 252.868 159.467C250.834 156.507 248.698 154.493 248.81 154.375C248.855 154.325 249.451 154.764 250.31 155.593C251.42 156.687 252.421 157.886 253.299 159.173C254.179 160.46 254.929 161.831 255.538 163.266C255.997 164.369 256.185 165.083 256.126 165.109Z" fill="#F7996E"/>
<path d="M217.045 177.969C216.942 178.067 214.04 175.221 210.564 171.613C207.088 168.005 204.35 164.994 204.454 164.89C204.558 164.787 207.46 167.638 210.939 171.249C214.417 174.859 217.149 177.868 217.045 177.969Z" fill="#F7996E"/>
<path d="M226.457 166.262C226.404 166.313 225.713 165.702 224.616 164.719L220.328 160.851L215.993 157.03C214.873 156.053 214.204 155.436 214.252 155.378C214.299 155.319 215.052 155.84 216.228 156.747C217.403 157.655 218.985 158.954 220.675 160.461C222.365 161.968 223.835 163.391 224.873 164.456C225.911 165.52 226.505 166.212 226.457 166.262Z" fill="#F7996E"/>
<path d="M239.093 162.106C238.945 162.179 237.563 159.025 234.895 155.776C232.228 152.526 229.441 150.521 229.544 150.389C229.581 150.336 230.328 150.765 231.428 151.624C234.284 153.894 236.615 156.755 238.262 160.011C238.884 161.26 239.152 162.081 239.093 162.106Z" fill="#F7996E"/>
<path d="M252.593 124.998L244.553 122.16L238.701 138.765L246.74 141.603L252.593 124.998Z" fill="#455B64"/>
<path d="M291.955 248.658C291.872 248.092 291.833 247.52 291.838 246.947C291.803 246.275 291.803 245.602 291.838 244.93C291.866 244.146 291.863 243.25 291.975 242.264C292.087 241.278 292.154 240.196 292.35 239.045C292.495 237.888 292.77 236.673 293.035 235.404C294.306 229.847 296.515 224.548 299.568 219.735C300.293 218.642 300.967 217.592 301.683 216.676C302.361 215.729 303.058 214.897 303.701 214.155C304.345 213.413 304.964 212.754 305.501 212.18C305.956 211.689 306.435 211.222 306.937 210.78C307.341 210.374 307.775 209.999 308.235 209.659C308.26 209.687 307.846 210.135 307.079 210.925C306.69 211.315 306.22 211.796 305.714 212.393C305.207 212.99 304.594 213.623 303.984 214.404C303.374 215.186 302.688 216.004 302.025 216.953C301.325 217.875 300.676 218.914 299.968 220.012C296.99 224.805 294.805 230.046 293.494 235.535C293.215 236.804 292.935 238.006 292.77 239.152C292.56 240.286 292.439 241.356 292.336 242.334C292.232 243.311 292.179 244.199 292.12 244.978C292.062 245.756 292.045 246.432 292.042 246.983C292.02 248.048 291.992 248.658 291.955 248.658Z" fill="#263238"/>
<path d="M337.485 332.604C337.363 332.473 337.257 332.327 337.171 332.17L336.357 330.876C335.657 329.755 334.644 328.117 333.365 326.114C330.821 322.108 327.208 316.641 323.116 310.666C319.025 304.691 315.263 299.316 312.548 295.42L309.349 290.798L308.51 289.527C308.397 289.384 308.303 289.228 308.23 289.062C308.365 289.18 308.485 289.316 308.585 289.465L309.515 290.681L312.848 295.207C315.647 299.047 319.453 304.389 323.545 310.372C327.636 316.355 331.207 321.856 333.676 325.918C334.918 327.943 335.884 329.607 336.53 330.767L337.261 332.111C337.357 332.265 337.433 332.43 337.485 332.604Z" fill="#F7996E"/>
<path d="M112.295 286.095L101.291 330.144L76.6284 306.22L50.8271 320.651L92.0605 372.563C100.409 384.451 112.152 389.154 121.374 386.804C133.129 383.81 141.525 372.272 141.525 372.272L142.479 297.568L112.295 286.095Z" fill="#FBBF9E"/>
<path d="M125.874 360.735C125.838 360.735 125.631 360.138 125.284 359.054C124.937 357.97 124.416 356.374 123.705 354.444C122.995 352.514 122.068 350.242 120.935 347.777C119.801 345.312 118.402 342.662 116.804 339.965C115.206 337.268 113.501 334.808 111.889 332.621C110.277 330.433 108.707 328.551 107.339 327.019C105.97 325.486 104.839 324.259 104.031 323.442C103.222 322.624 102.796 322.147 102.819 322.119C102.841 322.091 103.325 322.514 104.173 323.299C105.021 324.083 106.208 325.259 107.61 326.772C109.012 328.285 110.608 330.167 112.273 332.335C115.865 337.059 118.917 342.172 121.369 347.578C122.488 350.074 123.392 352.365 124.052 354.323C124.713 356.281 125.203 357.881 125.48 359.001C125.757 360.121 125.908 360.724 125.874 360.735Z" fill="#F7996E"/>
<path d="M151.371 235.401C151.371 235.04 168.91 200.536 168.91 200.536C151.726 202.343 136.384 208.416 126.409 221.508C121.772 227.597 118.315 234.731 115.701 241.196C108.741 258.428 96.3257 298.512 96.3257 298.512L146.26 324.562L151.371 235.401Z" fill="#F78E1E"/>
<path d="M143.822 248.931C143.965 248.931 143.391 281.703 142.538 322.1C141.684 362.497 140.875 395.267 140.733 395.264C140.59 395.261 141.164 362.505 142.017 322.089C142.871 281.672 143.677 248.928 143.822 248.931Z" fill="#263238"/>
<path d="M108.87 243.973C108.87 243.973 171.863 301.069 184.656 311.419C190.765 316.36 203.278 322.584 203.278 322.584L185.697 326.273L108.87 243.973Z" fill="white"/>
<g opacity="0.3">
<path d="M100.037 338.665C100.037 338.665 124.039 341.995 140.157 341.418C156.274 340.841 198.176 336.743 198.176 336.743L189.271 330.407L100.037 338.665Z" fill="black"/>
</g>
<path d="M104.199 236.303L1.20898 243.151L100.037 338.665L195.128 332.603L104.199 236.303Z" fill="#263238"/>
<path d="M63.4241 278.848C63.287 276.047 60.5835 274.087 57.8267 274.532C56.321 274.778 54.3619 275.148 51.9495 275.697C45.7559 277.114 28.2836 288.582 28.2444 292.341C28.1884 297.856 31.1971 299.607 31.1971 299.607C31.1971 299.607 28.1661 304.876 29.9992 308.694C31.5721 311.965 37.1779 312.461 37.1779 312.461C37.1779 312.461 33.7187 317.682 38.3198 320.517C39.915 321.5 43.1111 323.371 43.8808 324.043C43.8808 324.043 44.7204 326.085 45.3809 326.805C46.4643 327.986 47.7896 328.918 49.2663 329.538C50.7429 330.158 52.336 330.452 53.9365 330.399L54.9944 330.365C57.0308 330.3 58.9679 329.47 60.4211 328.041C66.9953 321.567 85.5507 302.893 85.4052 298.372C85.4052 298.372 88.9455 294.831 86.9976 291.817C85.0497 288.803 79.3852 290.932 79.3852 290.932C79.3852 290.932 81.9432 288.411 80.1744 285.238C78.4056 282.064 68.0644 283.635 63.4241 284.84C59.7355 285.798 49.4726 288.806 49.4726 288.806C49.4726 288.806 62.8112 282.288 63.343 279.806C63.4124 279.492 63.4397 279.17 63.4241 278.848Z" fill="#FBBF9E"/>
<path d="M85.4165 298.372C85.4361 298.403 84.9743 298.767 84.1179 299.4C83.2615 300.033 81.9992 300.918 80.4096 301.963C77.2358 304.069 72.7215 306.778 67.6027 309.526C62.4839 312.274 57.7457 314.568 54.2893 316.15C52.5653 316.949 51.1575 317.573 50.1808 317.993C49.204 318.413 48.6527 318.626 48.6387 318.593C49.1019 318.293 49.5886 318.03 50.094 317.808L54.1325 315.817C57.5442 314.136 62.2488 311.803 67.3564 309.066C72.4641 306.33 76.9952 303.677 80.2109 301.658C81.8229 300.652 83.1159 299.82 84.0031 299.235C84.8903 298.649 85.3941 298.344 85.4165 298.372Z" fill="#F7996E"/>
<path d="M80.0205 290.731C80.0205 290.767 79.5028 290.949 78.5372 291.249C77.5717 291.548 76.1863 292.002 74.4931 292.618C71.0871 293.831 66.4916 295.739 61.4819 298.033C58.9631 299.187 56.5618 300.223 54.4348 301.288C52.3078 302.352 50.427 303.394 48.871 304.302C47.3149 305.209 46.0723 305.982 45.2326 306.543C44.393 307.103 43.9172 307.383 43.8949 307.363C43.8725 307.344 43.9872 307.251 44.1915 307.083C44.3958 306.915 44.7093 306.674 45.1179 306.374C45.9379 305.778 47.1442 304.946 48.6834 303.994C50.2227 303.041 52.0895 301.957 54.2221 300.865C56.3547 299.772 58.7644 298.716 61.2692 297.565C66.2873 295.274 70.9303 293.394 74.3756 292.279C76.094 291.719 77.5073 291.322 78.4841 291.064C79.4608 290.806 80.0121 290.697 80.0205 290.731Z" fill="#F7996E"/>
<path d="M49.484 288.807C49.5203 288.866 48.7283 289.443 47.3905 290.283C46.0527 291.123 44.158 292.204 42.073 293.392C39.988 294.58 38.1268 295.703 36.7974 296.543C35.468 297.384 34.6536 297.919 34.6088 297.857C34.5641 297.795 35.3085 297.162 36.5931 296.235C38.2775 295.05 40.0205 293.951 41.8155 292.941C43.9089 291.748 45.8261 290.723 47.2058 289.964C48.5856 289.204 49.4448 288.742 49.484 288.807Z" fill="#F7996E"/>
<path d="M79.8808 307.352C79.9088 307.372 79.615 307.806 79.0412 308.565C78.4675 309.324 77.6223 310.389 76.5224 311.674C74.345 314.257 71.1041 317.618 67.6393 321.405C66.7801 322.349 65.9601 323.321 65.1205 324.206C64.2978 325.046 63.4288 325.839 62.5177 326.582C60.976 327.855 59.2464 328.881 57.3904 329.624C56.1413 330.124 54.8164 330.408 53.4722 330.464C53.109 330.493 52.744 330.493 52.3808 330.464C52.2528 330.467 52.1251 330.449 52.0029 330.411C52.0029 330.358 52.5291 330.377 53.4583 330.276C54.769 330.141 56.0515 329.807 57.2617 329.285C59.058 328.507 60.73 327.469 62.2238 326.204C63.1113 325.462 63.9596 324.675 64.765 323.845C65.6046 322.985 66.4023 322.022 67.2839 321.064C70.7654 317.26 74.0343 313.952 76.2761 311.439C77.3956 310.19 78.294 309.159 78.9097 308.445C79.5254 307.731 79.85 307.33 79.8808 307.352Z" fill="#F7996E"/>
<path d="M74.4174 235.404L29.2603 238.947C29.0514 238.963 28.8515 239.039 28.6847 239.166C28.518 239.293 28.3914 239.466 28.3202 239.663C28.2489 239.861 28.2361 240.074 28.2833 240.279C28.3304 240.483 28.4355 240.669 28.5859 240.815L39.4616 251.429L84.1038 248.734C84.3027 248.716 84.4929 248.644 84.6535 248.525C84.814 248.406 84.9389 248.245 85.0143 248.06C85.0897 247.875 85.1128 247.673 85.0811 247.476C85.0493 247.278 84.9639 247.093 84.8342 246.941L75.3326 235.796C75.2218 235.663 75.0811 235.558 74.922 235.49C74.763 235.422 74.5901 235.392 74.4174 235.404Z" fill="#E0E0E0"/>
<path d="M39.2712 251.941L28.2359 241.171C28.0171 240.958 27.8644 240.686 27.7961 240.387C27.7278 240.089 27.7467 239.778 27.8507 239.49C27.9546 239.203 28.1391 238.951 28.3822 238.766C28.6252 238.581 28.9165 238.47 29.2211 238.446L74.3782 234.902C74.6292 234.883 74.8812 234.923 75.1134 235.021C75.3455 235.118 75.5511 235.27 75.7132 235.462L85.2288 246.605C85.4177 246.827 85.5421 247.097 85.5882 247.385C85.6344 247.673 85.6006 247.968 85.4906 248.238C85.3805 248.508 85.1984 248.742 84.9642 248.916C84.73 249.089 84.4526 249.195 84.1625 249.221L39.2712 251.941ZM74.5041 235.902H74.4454L29.2994 239.446C29.1867 239.455 29.0791 239.497 28.9894 239.566C28.8996 239.634 28.8315 239.728 28.7932 239.834C28.7549 239.941 28.7479 240.056 28.7732 240.166C28.7984 240.277 28.8548 240.378 28.9356 240.457L39.6519 250.916L84.0729 248.221C84.179 248.212 84.2804 248.173 84.3652 248.109C84.45 248.044 84.5146 247.957 84.5515 247.857C84.5929 247.757 84.6057 247.648 84.5884 247.541C84.5711 247.434 84.5244 247.334 84.4535 247.252L74.9519 236.107C74.8961 236.043 74.8273 235.991 74.7501 235.956C74.6729 235.921 74.589 235.902 74.5041 235.902Z" fill="#263238"/>
<g opacity="0.3">
<path d="M269.291 19.913C256.868 10.1373 235.455 9.37818 227.126 11.633C212.047 15.717 199.419 25.8904 199.419 25.8904C201.784 27.3134 203.228 26.4506 205.705 25.2266C211.744 22.2603 214.829 19.9578 219.936 18.0531C219.936 18.0531 230.988 12.9243 240.901 13.619C250.814 14.3136 269.291 19.913 269.291 19.913Z" fill="black"/>
</g>
<g opacity="0.3">
<path d="M283.165 48.6324C276.837 48.2234 272.126 46.3047 265.919 44.5708C259.306 42.7221 252.737 41.1815 246.219 39.0163C241.271 37.3749 235.399 35.8231 232.332 32.0137C232.011 33.2384 232.013 34.5253 232.336 35.7494C232.659 36.9735 233.293 38.0931 234.176 38.9995C235.995 40.9603 242.953 42.3608 245.486 43.2011C259.927 48.0385 268.888 49.8116 284.253 54.4054C284.211 52.8284 283.165 48.6492 283.165 48.6492" fill="black"/>
</g>
<path d="M279.806 35.5229C283.724 37.4836 286.112 38.8085 286.033 42.2454C285.966 45.0969 285.194 48.545 282.361 48.8839C281.497 48.9876 280.632 48.7635 279.792 48.545L236.589 37.2287C235.128 36.8478 233.544 36.3884 232.67 35.1419C231.344 33.2344 232.536 30.4081 234.529 29.2149C236.521 28.0216 238.984 28.0188 241.304 28.0945C254.498 28.607 267.215 31.5258 279.798 35.5201" fill="#F1EA2A"/>
<path d="M279.806 35.523C279.7 35.5123 279.596 35.4898 279.496 35.4557L278.597 35.2008L275.155 34.2065C272.16 33.3662 267.817 32.1729 262.376 31.0273C256.015 29.664 249.559 28.794 243.065 28.4251C241.234 28.3466 239.342 28.1898 237.467 28.4671C235.592 28.7444 233.725 29.6043 232.877 31.3746C232.411 32.2094 232.276 33.1896 232.5 34.1196C232.644 34.5762 232.884 34.9963 233.205 35.3515C233.525 35.7068 233.919 35.9888 234.358 36.1784C235.248 36.6266 236.258 36.8563 237.271 37.128L240.333 37.9291L263.495 44.0158L273.599 46.6852L278.169 47.8981C279.638 48.237 281.046 48.828 282.367 48.6796C283.688 48.5311 284.656 47.4583 285.113 46.3463C285.542 45.2626 285.792 44.1158 285.851 42.9514C285.947 41.8562 285.877 40.8338 285.49 39.9879C285.124 39.2199 284.584 38.5484 283.912 38.0271C282.962 37.3099 281.953 36.6754 280.895 36.1308L280.078 35.6826C279.978 35.6373 279.884 35.5809 279.798 35.5146C279.901 35.5438 280 35.5842 280.094 35.635L280.934 36.0384C282.022 36.5479 283.058 37.1603 284.029 37.8675C284.739 38.3982 285.314 39.0879 285.709 39.8814C286.131 40.7638 286.218 41.8618 286.134 42.9626C286.086 44.1635 285.842 45.3483 285.409 46.4695C285.161 47.0926 284.788 47.658 284.312 48.1305C283.791 48.6312 283.123 48.9504 282.406 49.0409C281.672 49.1088 280.932 49.0395 280.223 48.8364L278.06 48.2762L273.476 47.0913L263.358 44.4808L240.188 38.4333L237.126 37.6294C236.118 37.3493 235.08 37.128 234.112 36.6434C233.143 36.1588 232.293 35.3437 232.013 34.2569C231.754 33.2019 231.904 32.0882 232.432 31.1393C232.905 30.1994 233.644 29.4199 234.557 28.8985C235.439 28.4138 236.403 28.0966 237.4 27.9629C239.359 27.6828 241.254 27.8481 243.093 27.9321C249.612 28.3232 256.09 29.2327 262.465 30.6519C267.909 31.848 272.261 33.0916 275.225 34.0132C276.714 34.4726 277.867 34.8367 278.642 35.1028L279.526 35.4025C279.623 35.4338 279.717 35.4741 279.806 35.523Z" fill="#F1EA2A"/>
<path d="M193.172 26.1448C195.341 26.226 197.728 26.1896 200.074 25.1588C202.444 24.2401 204.714 22.7079 207.177 21.2037C209.64 19.6996 212.385 18.4027 215.142 16.8957C217.921 15.4448 220.823 13.9462 223.958 12.7726C230.227 10.3328 236.742 9.89866 242.491 10.2348C247.616 10.5078 252.672 11.5317 257.5 13.2739C260.748 14.4394 263.848 15.9831 266.736 17.8733C267.041 18.0694 267.312 18.257 267.576 18.4335C255.86 8.19842 241.083 3.96882 240.182 3.78955C213.673 -1.47084 184.955 16.5456 181.569 18.5063C178.182 20.4671 179.677 23.1365 179.677 23.1365C179.732 23.2618 179.804 23.3788 179.892 23.4838C180.97 24.2737 185.834 25.8255 193.172 26.1448Z" fill="#F1EA2A"/>
<path d="M257.5 13.2746C252.673 11.5324 247.616 10.5084 242.491 10.2354C236.742 9.89931 230.227 10.3335 223.958 12.7732C220.823 13.9468 217.921 15.4454 215.142 16.8964C212.385 18.3949 209.662 19.6974 207.177 21.2044C204.692 22.7114 202.444 24.2407 200.074 25.1595C197.729 26.1903 195.341 26.2267 193.172 26.1455C185.826 25.8261 180.97 24.2744 179.898 23.4845C180.021 23.635 180.17 23.763 180.337 23.8626C181.161 24.3219 182.039 24.6749 182.951 24.913C186.284 25.8228 189.705 26.3648 193.155 26.5292C195.31 26.6441 197.835 26.616 200.239 25.5797C202.674 24.6553 204.983 23.1147 207.437 21.6358C209.892 20.1568 212.634 18.8571 215.388 17.3669C218.167 15.9244 221.053 14.4398 224.151 13.2802C230.333 10.8741 236.745 10.4287 242.463 10.734C247.545 10.9826 252.565 11.9599 257.369 13.6359C260.611 14.7608 263.719 16.2423 266.635 18.0532C267.453 18.5546 268.105 18.986 268.595 19.3333C268.259 19.0252 267.917 18.7311 267.576 18.4341C267.318 18.2577 267.047 18.07 266.736 17.8739C263.848 15.9838 260.749 14.4401 257.5 13.2746Z" fill="#263238"/>
<path d="M309.839 201.609C309.839 201.609 337.308 207.211 343.488 233.684C348.279 254.205 355.802 295.442 355.802 295.442L310.463 292.28L296.299 271.832L309.839 201.609Z" fill="#F78E1E"/>
</g>
<defs>
<clipPath id="clip0_342_1868">
<rect width="357" height="397" fill="white"/>
</clipPath>
</defs>
</svg>
