<svg width="4401" height="172" xmlns="http://www.w3.org/2000/svg" xmlns:xlink="http://www.w3.org/1999/xlink" xml:space="preserve" overflow="hidden"><defs><clipPath id="clip0"><rect x="0" y="1152" width="4401" height="172"/></clipPath></defs><g clip-path="url(#clip0)" transform="matrix(1 0 0 1 0 -1152)"><path d="M0 1152 4400 1152 4400 1323 0 1323Z" fill="#5CC9E5" fill-rule="evenodd"/><path d="M1566.96 1164.73C1610.86 1186.74 1653.13 1213.58 1701.58 1225.62 1783.84 1245.91 1873.91 1221.83 1956.82 1240.75 2035.5 1258.3 2100.53 1312.99 2180.85 1322.62 2186.05 1323.31 2191.25 1323.66 2196.78 1324 3022.01 1324 4400 1324 4400 1324L4399.02 1152 1539 1152C1548.43 1155.78 1557.86 1160.26 1566.96 1164.73Z" fill="#A0CEE5" fill-rule="evenodd"/><path d="M2540.79 1184.49C2573.95 1218.35 2627.28 1216.64 2673.45 1210.14 2719.62 1203.64 2770.67 1195.09 2810.01 1221.08 2832.12 1235.79 2848.05 1259.73 2871.46 1272.04 2901.7 1288.12 2937.8 1282.3 2971.61 1282.64 3013.88 1282.99 3055.82 1293.59 3093.54 1313.77 3098.42 1316.5 3103.3 1319.58 3107.85 1323 3772.78 1323 4400 1323 4400 1323L4399.02 1152 2519 1152C2524.85 1163.97 2531.68 1175.26 2540.79 1184.49Z" fill="#B4D9EB" fill-rule="evenodd"/><path d="M3365.41 1165.05C3381.35 1187.02 3396.97 1213.8 3414.54 1225.81 3444.8 1246.07 3477.66 1222.04 3507.91 1240.92 3536.55 1258.43 3560.3 1313.01 3589.9 1322.63 3591.85 1323.31 3593.81 1323.66 3595.76 1324 3897.36 1324 4401 1324 4401 1324L4400.35 1152 3355 1152C3358.58 1156.12 3361.83 1160.58 3365.41 1165.05Z" fill="#C8E3ED" fill-rule="evenodd"/></g></svg>