<svg width="256" height="138" viewBox="0 0 256 138" fill="none" xmlns="http://www.w3.org/2000/svg">
<mask id="path-1-inside-1_246_1039" fill="white">
<path fill-rule="evenodd" clip-rule="evenodd" d="M0 0H17V5H239V0H256V17H251V121H256V138H239V133H17V138H0V121H5V17H0V0Z"/>
</mask>
<path fill-rule="evenodd" clip-rule="evenodd" d="M0 0H17V5H239V0H256V17H251V121H256V138H239V133H17V138H0V121H5V17H0V0Z" fill="white"/>
<path d="M17 0H18V-1H17V0ZM0 0V-1H-1V0H0ZM17 5H16V6H17V5ZM239 5V6H240V5H239ZM239 0V-1H238V0H239ZM256 0H257V-1H256V0ZM256 17V18H257V17H256ZM251 17V16H250V17H251ZM251 121H250V122H251V121ZM256 121H257V120H256V121ZM256 138V139H257V138H256ZM239 138H238V139H239V138ZM239 133H240V132H239V133ZM17 133V132H16V133H17ZM17 138V139H18V138H17ZM0 138H-1V139H0V138ZM0 121V120H-1V121H0ZM5 121V122H6V121H5ZM5 17H6V16H5V17ZM0 17H-1V18H0V17ZM17 -1H12.75V1H17V-1ZM4.25 -1H0V1H4.25V-1ZM-1 0V4.25H1V0H-1ZM-1 12.75V17H1V12.75H-1ZM0 18H1.25V16H0V18ZM3.75 18H5V16H3.75V18ZM4 17V20.7143H6V17H4ZM4 28.1429V35.5714H6V28.1429H4ZM4 43V50.4286H6V43H4ZM4 57.8571V65.2857H6V57.8571H4ZM4 72.7143V80.1429H6V72.7143H4ZM4 87.5714V95H6V87.5714H4ZM4 102.429V109.857H6V102.429H4ZM4 117.286V121H6V117.286H4ZM5 120H3.75V122H5V120ZM1.25 120H0V122H1.25V120ZM-1 121V125.25H1V121H-1ZM-1 133.75V138H1V133.75H-1ZM0 139H4.25V137H0V139ZM12.75 139H17V137H12.75V139ZM18 138V136.75H16V138H18ZM18 134.25V133H16V134.25H18ZM17 134H20.4688V132H17V134ZM27.4062 134H34.3438V132H27.4062V134ZM41.2812 134H48.2188V132H41.2812V134ZM55.1562 134H62.0938V132H55.1562V134ZM69.0312 134H75.9688V132H69.0312V134ZM82.9062 134H89.8438V132H82.9062V134ZM96.7812 134H103.719V132H96.7812V134ZM110.656 134H117.594V132H110.656V134ZM124.531 134H131.469V132H124.531V134ZM138.406 134H145.344V132H138.406V134ZM152.281 134H159.219V132H152.281V134ZM166.156 134H173.094V132H166.156V134ZM180.031 134H186.969V132H180.031V134ZM193.906 134H200.844V132H193.906V134ZM207.781 134H214.719V132H207.781V134ZM221.656 134H228.594V132H221.656V134ZM235.531 134H239V132H235.531V134ZM238 133V134.25H240V133H238ZM238 136.75V138H240V136.75H238ZM239 139H243.25V137H239V139ZM251.75 139H256V137H251.75V139ZM257 138V133.75H255V138H257ZM257 125.25V121H255V125.25H257ZM256 120H254.75V122H256V120ZM252.25 120H251V122H252.25V120ZM252 121V117.286H250V121H252ZM252 109.857V102.429H250V109.857H252ZM252 95V87.5714H250V95H252ZM252 80.1429V72.7143H250V80.1429H252ZM252 65.2857V57.8571H250V65.2857H252ZM252 50.4286V43H250V50.4286H252ZM252 35.5714V28.1429H250V35.5714H252ZM252 20.7143V17H250V20.7143H252ZM251 18H252.25V16H251V18ZM254.75 18H256V16H254.75V18ZM257 17V12.75H255V17H257ZM257 4.25V0H255V4.25H257ZM256 -1H251.75V1H256V-1ZM243.25 -1H239V1H243.25V-1ZM238 0V1.25H240V0H238ZM238 3.75V5H240V3.75H238ZM239 4H235.531V6H239V4ZM228.594 4H221.656V6H228.594V4ZM214.719 4H207.781V6H214.719V4ZM200.844 4H193.906V6H200.844V4ZM186.969 4H180.031V6H186.969V4ZM173.094 4H166.156V6H173.094V4ZM159.219 4H152.281V6H159.219V4ZM145.344 4H138.406V6H145.344V4ZM131.469 4H124.531V6H131.469V4ZM117.594 4H110.656V6H117.594V4ZM103.719 4H96.7812V6H103.719V4ZM89.8438 4H82.9062V6H89.8438V4ZM75.9688 4H69.0312V6H75.9688V4ZM62.0938 4H55.1562V6H62.0938V4ZM48.2188 4H41.2812V6H48.2188V4ZM34.3438 4H27.4062V6H34.3438V4ZM20.4688 4H17V6H20.4688V4ZM18 5V3.75H16V5H18ZM18 1.25V0H16V1.25H18ZM17 0H19V-2H17V0ZM0 0V-2H-2V0H0ZM17 5H15V7H17V5ZM239 5V7H241V5H239ZM239 0V-2H237V0H239ZM256 0H258V-2H256V0ZM256 17V19H258V17H256ZM251 17V15H249V17H251ZM251 121H249V123H251V121ZM256 121H258V119H256V121ZM256 138V140H258V138H256ZM239 138H237V140H239V138ZM239 133H241V131H239V133ZM17 133V131H15V133H17ZM17 138V140H19V138H17ZM0 138H-2V140H0V138ZM0 121V119H-2V121H0ZM5 121V123H7V121H5ZM5 17H7V15H5V17ZM0 17H-2V19H0V17ZM17 -2H12.75V2H17V-2ZM4.25 -2H0V2H4.25V-2ZM-2 0V4.25H2V0H-2ZM-2 12.75V17H2V12.75H-2ZM0 19H1.25V15H0V19ZM3.75 19H5V15H3.75V19ZM3 17V20.7143H7V17H3ZM3 28.1429V35.5714H7V28.1429H3ZM3 43V50.4286H7V43H3ZM3 57.8571V65.2857H7V57.8571H3ZM3 72.7143V80.1429H7V72.7143H3ZM3 87.5714V95H7V87.5714H3ZM3 102.429V109.857H7V102.429H3ZM3 117.286V121H7V117.286H3ZM5 119H3.75V123H5V119ZM1.25 119H0V123H1.25V119ZM-2 121V125.25H2V121H-2ZM-2 133.75V138H2V133.75H-2ZM0 140H4.25V136H0V140ZM12.75 140H17V136H12.75V140ZM19 138V136.75H15V138H19ZM19 134.25V133H15V134.25H19ZM17 135H20.4688V131H17V135ZM27.4062 135H34.3438V131H27.4062V135ZM41.2812 135H48.2188V131H41.2812V135ZM55.1562 135H62.0938V131H55.1562V135ZM69.0312 135H75.9688V131H69.0312V135ZM82.9062 135H89.8438V131H82.9062V135ZM96.7812 135H103.719V131H96.7812V135ZM110.656 135H117.594V131H110.656V135ZM124.531 135H131.469V131H124.531V135ZM138.406 135H145.344V131H138.406V135ZM152.281 135H159.219V131H152.281V135ZM166.156 135H173.094V131H166.156V135ZM180.031 135H186.969V131H180.031V135ZM193.906 135H200.844V131H193.906V135ZM207.781 135H214.719V131H207.781V135ZM221.656 135H228.594V131H221.656V135ZM235.531 135H239V131H235.531V135ZM237 133V134.25H241V133H237ZM237 136.75V138H241V136.75H237ZM239 140H243.25V136H239V140ZM251.75 140H256V136H251.75V140ZM258 138V133.75H254V138H258ZM258 125.25V121H254V125.25H258ZM256 119H254.75V123H256V119ZM252.25 119H251V123H252.25V119ZM253 121V117.286H249V121H253ZM253 109.857V102.429H249V109.857H253ZM253 95V87.5714H249V95H253ZM253 80.1429V72.7143H249V80.1429H253ZM253 65.2857V57.8571H249V65.2857H253ZM253 50.4286V43H249V50.4286H253ZM253 35.5714V28.1429H249V35.5714H253ZM253 20.7143V17H249V20.7143H253ZM251 19H252.25V15H251V19ZM254.75 19H256V15H254.75V19ZM258 17V12.75H254V17H258ZM258 4.25V0H254V4.25H258ZM256 -2H251.75V2H256V-2ZM243.25 -2H239V2H243.25V-2ZM237 0V1.25H241V0H237ZM237 3.75V5H241V3.75H237ZM239 3H235.531V7H239V3ZM228.594 3H221.656V7H228.594V3ZM214.719 3H207.781V7H214.719V3ZM200.844 3H193.906V7H200.844V3ZM186.969 3H180.031V7H186.969V3ZM173.094 3H166.156V7H173.094V3ZM159.219 3H152.281V7H159.219V3ZM145.344 3H138.406V7H145.344V3ZM131.469 3H124.531V7H131.469V3ZM117.594 3H110.656V7H117.594V3ZM103.719 3H96.7812V7H103.719V3ZM89.8438 3H82.9062V7H89.8438V3ZM75.9688 3H69.0312V7H75.9688V3ZM62.0938 3H55.1562V7H62.0938V3ZM48.2188 3H41.2812V7H48.2188V3ZM34.3438 3H27.4062V7H34.3438V3ZM20.4688 3H17V7H20.4688V3ZM19 5V3.75H15V5H19ZM19 1.25V0H15V1.25H19Z" fill="#233E46" mask="url(#path-1-inside-1_246_1039)"/>
<circle cx="127.5" cy="69.5" r="25.5" fill="#233E46"/>
<path fill-rule="evenodd" clip-rule="evenodd" d="M129.818 59.2338H125.182V67.513H116.903V72.1493H125.182V80.4286H129.818V72.1493H138.098V67.513H129.818V59.2338Z" fill="white"/>
</svg>
