<svg width="75" height="68" viewBox="0 0 75 68" fill="none" xmlns="http://www.w3.org/2000/svg">
<rect width="75" height="68" rx="8" fill="white"/>
<path d="M40.7609 54.465H8.85491C7.73016 54.465 6.81836 53.8164 6.81836 53.0161V12.4488C6.81836 11.6487 7.73016 11 8.85491 11H65.8784C67.0032 11 67.9149 11.6487 67.9149 12.4488V35.1472" stroke="black" stroke-linecap="round" stroke-linejoin="round"/>
<path d="M9.92285 42.2238L34.5326 31.7158L53.8688 40.4725" stroke="black" stroke-linecap="round" stroke-linejoin="round"/>
<path d="M55.2222 27.8725C52.4777 27.8725 50.2529 25.7141 50.2529 23.0517C50.2529 20.3893 52.4777 18.231 55.2222 18.231C57.9668 18.231 60.1915 20.3893 60.1915 23.0517C60.1915 25.7141 57.9668 27.8725 55.2222 27.8725Z" stroke="black" stroke-linecap="round" stroke-linejoin="round"/>
<path d="M55.2227 49.5661H62.6766M62.6766 49.5661H70.1305M62.6766 49.5661V42.335M62.6766 49.5661V56.7972" stroke="black" stroke-linecap="round" stroke-linejoin="round"/>
</svg>
