<svg width="562" height="442" xmlns="http://www.w3.org/2000/svg" xmlns:xlink="http://www.w3.org/1999/xlink" xml:space="preserve" overflow="hidden"><g transform="translate(-2757 -1618)"><g><g><g><path d="M139.073-123.211 392.091-123.211 392.091 391.279 139.073 391.279Z" stroke="#4A92B7" stroke-width="4.7935" stroke-miterlimit="10" fill="#A3CEE7" transform="matrix(-1.93834e-16 1 -1.05519 -1.83697e-16 3179.39 1486.44)"/><path d="M29.3231 25.6704 501.841 25.6704 501.841 242.364 29.3231 242.364Z" fill="#FFFFFF" fill-opacity="0.75" transform="matrix(-1.05519 -1.22465e-16 1.29223e-16 -1 3318.21 1886.05)"/><path d="M498.492 0.236749 526.632 0.236749 526.632 32.739 498.492 32.739Z" stroke="#4A92B7" stroke-width="4.7935" stroke-miterlimit="10" fill="#A3CEE7" transform="matrix(-1.93834e-16 1 -1.05519 -1.83697e-16 3315.96 1121.9)"/><path d="M520.138 16.471C520.138 20.0947 516.746 23.0323 512.562 23.0323 508.378 23.0323 504.986 20.0947 504.986 16.471 504.986 12.8473 508.378 9.90965 512.562 9.90965 516.746 9.90965 520.138 12.8473 520.138 16.471Z" fill="#FFFFFF" fill-opacity="0.75" transform="matrix(1.05519 0 0 1 2757.73 1618)"/><path d="M498.492 235.295 526.632 235.295 526.632 267.797 498.492 267.797Z" stroke="#4A92B7" stroke-width="4.7935" stroke-miterlimit="10" fill="#A3CEE7" transform="matrix(-1.93834e-16 1 -1.05519 -1.83697e-16 3564 1356.96)"/><path d="M520.138 251.529C520.138 255.153 516.746 258.09 512.562 258.09 508.378 258.09 504.986 255.153 504.986 251.529 504.986 247.905 508.378 244.968 512.562 244.968 516.746 244.968 520.138 247.905 520.138 251.529Z" fill="#FFFFFF" fill-opacity="0.75" transform="matrix(1.05519 0 0 1 2757.73 1618)"/><path d="M2.16456 2.63806 30.3039 2.63806 30.3039 30.3039 2.16456 30.3039Z" stroke="#4A92B7" stroke-width="4.7935" stroke-miterlimit="10" fill="#A3CEE7" transform="matrix(-1.93834e-16 1 -1.05519 -1.83697e-16 2792.23 1618.24)"/><path d="M26.2115 16.471C26.2115 20.0947 22.8196 23.0323 18.6355 23.0323 14.4515 23.0323 11.0596 20.0947 11.0596 16.471 11.0596 12.8473 14.4515 9.90965 18.6355 9.90965 22.8196 9.90965 26.2115 12.8473 26.2115 16.471Z" fill="#FFFFFF" fill-opacity="0.75" transform="matrix(1.05519 0 0 1 2757.73 1618)"/><path d="M4.56588 235.295 32.7052 235.295 32.7052 267.797 4.56588 267.797Z" stroke="#4A92B7" stroke-width="4.7935" stroke-miterlimit="10" fill="#A3CEE7" transform="matrix(-1.93834e-16 1 -1.05519 -1.83697e-16 3042.82 1850.89)"/><path d="M26.2115 251.529C26.2115 255.153 22.8196 258.09 18.6355 258.09 14.4515 258.09 11.0596 255.153 11.0596 251.529 11.0596 247.905 14.4515 244.968 18.6355 244.968 22.8196 244.968 26.2115 247.905 26.2115 251.529Z" fill="#FFFFFF" fill-opacity="0.75" transform="matrix(1.05519 0 0 1 2757.73 1618)"/></g></g></g><path d="M3090.48 1733.13 3076.28 1748.39 3110.93 1780.65 3082.52 1811.16 3047.87 1778.89 3033.67 1794.14 2985.57 1692.39Z" stroke="#000000" stroke-width="4.58333" stroke-miterlimit="8" fill="#FFFFFF" fill-rule="evenodd"/><path d="M3120.24 1971.99C3108.78 1952.29 3115.46 1927.03 3135.16 1915.57L3155.27 1903.88C3174.97 1892.42 3200.23 1899.1 3211.69 1918.8L3249.25 1983.37C3260.71 2003.07 3254.03 2028.33 3234.33 2039.79L3214.23 2051.49C3194.53 2062.95 3169.27 2056.27 3157.81 2036.57Z" stroke="#000000" stroke-width="4.58333" stroke-miterlimit="8" fill="#FFFFFF" fill-rule="evenodd"/><path d="M3125.76 1981.47 3217.2 1928.27" stroke="#000000" stroke-width="4.58333" stroke-miterlimit="8" fill="none" fill-rule="evenodd"/><path d="M0 0 0.000360892 8.11467" stroke="#000000" stroke-width="4.58333" stroke-miterlimit="8" fill="none" fill-rule="evenodd" transform="matrix(0.864378 -0.502842 -0.502842 -0.864378 3149.29 1916.74)"/><path d="M3125.96 1981.68 3119.72 1970.51 3115.44 1959.7 3114.69 1949.35 3116.34 1940.11 3119.15 1932.45 3123.3 1925.78 3128.5 1920.49 3135.46 1915.19 3145.66 1909.01 3170.76 1955.62 3125.96 1981.68Z" fill="#0D0D0D" fill-rule="evenodd"/><path d="M3146.27 1928.17C3143.95 1924.18 3145.3 1919.06 3149.29 1916.74L3149.29 1916.74C3153.29 1914.41 3158.4 1915.77 3160.73 1919.76L3178.55 1950.4C3180.87 1954.39 3179.52 1959.51 3175.53 1961.83L3175.53 1961.83C3171.53 1964.15 3166.42 1962.8 3164.09 1958.8Z" stroke="#000000" stroke-width="4.58333" stroke-miterlimit="8" fill="#FFFFFF" fill-rule="evenodd"/></g></svg>