<svg width="4084" height="1469" xmlns="http://www.w3.org/2000/svg" xmlns:xlink="http://www.w3.org/1999/xlink" xml:space="preserve" overflow="hidden"><defs><clipPath id="clip0"><rect x="158" y="503" width="4084" height="1469"/></clipPath></defs><g clip-path="url(#clip0)" transform="translate(-158 -503)"><path d="M547.641 503 2816.57 503C3024.15 503.046 3231.17 524.619 3434.3 567.373 3695.29 622.86 3930.74 762.821 4104.25 965.615L4169.73 1042.47C4266.09 1154.62 4266.09 1320.38 4169.73 1432.53L4104.25 1509.39C3930.76 1712.2 3695.3 1852.17 3434.3 1907.63 3231.17 1950.38 3024.15 1971.96 2816.57 1972L547.641 1972C332.448 1972 158 1797.47 158 1582.18L158 892.817C158 677.527 332.448 503 547.641 503Z" fill="#243D45" fill-rule="evenodd" fill-opacity="0.501961"/></g></svg>