<svg xmlns="http://www.w3.org/2000/svg" viewBox="0 0 1188.17 427.19"><defs><style>.cls-1{fill:#243d45;}.cls-2{fill:#bcbcbc;}.cls-3{fill:#b35a5e;}.cls-4{fill:#e0e0e0;}.cls-10,.cls-11,.cls-12,.cls-5,.cls-6,.cls-7,.cls-9{fill:none;stroke-miterlimit:10;}.cls-10,.cls-11,.cls-12,.cls-5,.cls-7,.cls-9{stroke:#243d45;}.cls-5,.cls-6{stroke-width:8.5px;}.cls-6{stroke:#febe11;}.cls-7{stroke-width:2.83px;}.cls-8{fill:#febe11;}.cls-9{stroke-width:2.84px;}.cls-10{stroke-width:2.94px;}.cls-11{stroke-width:3px;}.cls-12{stroke-width:2.91px;}.cls-13{fill:#878787;}</style></defs><g id="Layer_2" data-name="Layer 2"><g id="Layer_1-2" data-name="Layer 1"><path class="cls-1" d="M0,313.83V113.36A113.36,113.36,0,0,1,113.36,0H773.47A873.92,873.92,0,0,1,953.19,18.72,353.2,353.2,0,0,1,1148.1,134.53l19.05,22.35a87,87,0,0,1,0,113.43l-19.05,22.35A353.08,353.08,0,0,1,953.19,408.47a873.85,873.85,0,0,1-179.72,18.72H113.36A113.36,113.36,0,0,1,0,313.83Z"/><path class="cls-2" d="M161.36,17.21h17.36a0,0,0,0,1,0,0V410a0,0,0,0,1,0,0H161.36a81.19,81.19,0,0,1-81.19-81.19V98.4a81.19,81.19,0,0,1,81.19-81.19Z"/><path class="cls-3" d="M1149.46,168l-19-22.34A334.11,334.11,0,0,0,945,35.56h0A854.77,854.77,0,0,0,768.88,17.21H190V410H768.88A854.77,854.77,0,0,0,945,391.63h0a334.05,334.05,0,0,0,185.37-110.14l19-22.34A70.21,70.21,0,0,0,1149.46,168Z"/><path class="cls-4" d="M1149.46,168l-19-22.34A334.11,334.11,0,0,0,945,35.56h0q-20.89-4.41-42-7.74V86.89c47.49,0,81.2,51.64,81.2,51.64V288.66s-33.71,51.65-81.2,51.65v59.07q21.08-3.36,42-7.75h0a334.05,334.05,0,0,0,185.37-110.14l19-22.34A70.21,70.21,0,0,0,1149.46,168Z"/><path class="cls-5" d="M903.06,400.82V340.31c47.49,0,81.2-51.65,81.2-51.65V138.53s-33.71-51.64-81.2-51.64V26.38"/><line class="cls-6" x1="1012.6" y1="269.13" x2="1104.64" y2="269.13"/><line class="cls-6" x1="1012.6" y1="156.02" x2="1104.64" y2="156.02"/><line class="cls-7" x1="1012.6" y1="269.13" x2="1104.64" y2="269.13"/><line class="cls-7" x1="1012.6" y1="156.02" x2="1104.64" y2="156.02"/><path class="cls-8" d="M997.53,137.51c-12.12,0-22,8.29-22,18.51V269.13c0,10.22,9.84,18.51,22,18.51h0c12.13,0,22-8.29,22-18.51V156c0-10.22-9.83-18.51-22-18.51Z"/><path class="cls-7" d="M997.53,282.64c-9.35,0-17-6.06-17-13.51V156c0-7.45,7.61-13.51,17-13.51s17,6.06,17,13.51V269.13C1014.49,276.58,1006.88,282.64,997.53,282.64Z"/><path class="cls-4" d="M178.72,17.21h0a0,0,0,0,1,0,0V410a0,0,0,0,1,0,0h0a81.19,81.19,0,0,1-81.19-81.19V98.4A81.19,81.19,0,0,1,178.72,17.21Z"/><line class="cls-9" x1="107.52" y1="103.2" x2="168.72" y2="103.2"/><line class="cls-10" x1="109.36" y1="81.34" x2="168.72" y2="81.34"/><line class="cls-10" x1="109.36" y1="343.68" x2="168.72" y2="343.68"/><line class="cls-11" x1="119.4" y1="59.48" x2="168.72" y2="59.48"/><line class="cls-11" x1="119.4" y1="365.54" x2="168.72" y2="365.54"/><line class="cls-12" x1="141.19" y1="37.62" x2="168.72" y2="37.62"/><line class="cls-12" x1="141.19" y1="387.4" x2="168.72" y2="387.4"/><line class="cls-9" x1="107.52" y1="125.06" x2="168.72" y2="125.06"/><line class="cls-9" x1="107.52" y1="146.93" x2="168.72" y2="146.93"/><line class="cls-9" x1="107.52" y1="168.79" x2="168.72" y2="168.79"/><line class="cls-9" x1="107.52" y1="190.65" x2="168.72" y2="190.65"/><line class="cls-9" x1="107.52" y1="212.51" x2="168.72" y2="212.51"/><line class="cls-9" x1="107.52" y1="234.37" x2="168.72" y2="234.37"/><line class="cls-9" x1="107.52" y1="256.23" x2="168.72" y2="256.23"/><line class="cls-9" x1="107.52" y1="278.1" x2="168.72" y2="278.1"/><line class="cls-9" x1="107.52" y1="299.96" x2="168.72" y2="299.96"/><line class="cls-9" x1="107.52" y1="321.82" x2="168.72" y2="321.82"/><circle class="cls-2" cx="39.06" cy="140.68" r="27.32"/><circle class="cls-13" cx="39.06" cy="140.68" r="21.02"/><circle class="cls-2" cx="39.06" cy="286.51" r="27.32"/><circle class="cls-13" cx="39.06" cy="286.51" r="21.02"/><circle class="cls-2" cx="39.06" cy="213.6" r="27.32"/><circle class="cls-13" cx="39.06" cy="213.6" r="21.02"/></g></g></svg>